<svg width="24" height="24" viewBox="0 0 24 24" fill="none" xmlns="http://www.w3.org/2000/svg">
<g clip-path="url(#clip0_62_848)">
<rect width="24" height="24" rx="5" fill="#D52940"/>
<g clip-path="url(#clip1_62_848)">
<path d="M11.8619 16.5644C12.0744 16.5644 12.2467 16.3858 12.2467 16.1655C12.2467 15.9453 12.0744 15.7667 11.8619 15.7667C11.6494 15.7667 11.4771 15.9453 11.4771 16.1655C11.4771 16.3858 11.6494 16.5644 11.8619 16.5644Z" fill="white"/>
<path d="M3.77838 5.983V7.2047C3.77838 7.50294 3.89267 7.78896 4.09611 7.99985C4.29955 8.21073 4.57547 8.32921 4.86318 8.32921H8.62844V6.66675C8.62844 6.48541 8.55894 6.3115 8.43524 6.18327C8.31154 6.05504 8.14377 5.983 7.96883 5.983H3.77838ZM7.98176 7.65886H4.82276C4.71728 7.65886 4.61612 7.61543 4.54154 7.53811C4.46696 7.4608 4.42506 7.35594 4.42506 7.2466V6.65335H7.82009C7.86297 6.65335 7.90409 6.671 7.93441 6.70243C7.96473 6.73386 7.98176 6.77649 7.98176 6.82093V7.65886Z" fill="white"/>
<path d="M9.43677 5.983V7.2047C9.43677 7.50294 9.55106 7.78896 9.7545 7.99985C9.95794 8.21073 10.2339 8.32921 10.5216 8.32921H14.2868V6.66675C14.2868 6.48541 14.2173 6.3115 14.0936 6.18327C13.9699 6.05504 13.8022 5.983 13.6272 5.983H9.43677ZM13.6401 7.65886H10.4811C10.3757 7.65886 10.2745 7.61543 10.1999 7.53811C10.1253 7.4608 10.0834 7.35594 10.0834 7.2466V6.65335H13.4785C13.5214 6.65335 13.5625 6.671 13.5928 6.70243C13.6231 6.73386 13.6401 6.77649 13.6401 6.82093V7.65886Z" fill="white"/>
<path d="M23.3338 8.67279L21.7171 8.06445V4.60045C21.7167 4.17612 21.5539 3.7693 21.2644 3.46925C20.975 3.1692 20.5825 3.00044 20.1732 3H3.54393C3.13459 3.00044 2.74213 3.1692 2.45268 3.46925C2.16323 3.7693 2.00043 4.17612 2 4.60045V16.6298C2.00043 17.0541 2.16323 17.4609 2.45268 17.761C2.74213 18.061 3.13459 18.2298 3.54393 18.2302H10.334L9.22011 20.2312H7.46116C7.35868 20.2312 7.26041 20.2734 7.18794 20.3485C7.11548 20.4236 7.07477 20.5255 7.07477 20.6317C7.07477 20.738 7.11548 20.8398 7.18794 20.9149C7.26041 20.9901 7.35868 21.0323 7.46116 21.0323H16.2624C16.3649 21.0323 16.4631 20.9901 16.5356 20.9149C16.6081 20.8398 16.6488 20.738 16.6488 20.6317C16.6488 20.5255 16.6081 20.4236 16.5356 20.3485C16.4631 20.2734 16.3649 20.2312 16.2624 20.2312H14.5018L13.3879 18.2302H20.178C20.5873 18.2298 20.9798 18.061 21.2693 17.761C21.5587 17.4609 21.7215 17.0541 21.7219 16.6298V10.0939L23.3693 9.15544C23.412 9.13091 23.4469 9.09418 23.4699 9.04962C23.4929 9.00507 23.5031 8.95459 23.4992 8.90421C23.4953 8.85383 23.4774 8.80569 23.4478 8.76554C23.4182 8.72539 23.378 8.69494 23.3322 8.67782L23.3338 8.67279ZM13.611 20.2362H10.1125L11.2264 18.2352H12.4971L13.611 20.2362ZM20.9524 16.6348C20.952 16.847 20.8704 17.0503 20.7255 17.2002C20.5806 17.35 20.3843 17.4342 20.1796 17.4342H3.54393C3.33926 17.4342 3.14295 17.35 2.99807 17.2002C2.85319 17.0503 2.77159 16.847 2.77116 16.6348V14.7076H20.9524V16.6348ZM20.9524 13.9115H2.77116V4.60045C2.77159 4.38828 2.85319 4.18496 2.99807 4.03509C3.14295 3.88523 3.33926 3.80106 3.54393 3.80106H20.1796C20.3843 3.80106 20.5806 3.88523 20.7255 4.03509C20.8704 4.18496 20.952 4.38828 20.9524 4.60045V7.77453L20.6291 7.65386L19.9403 7.39411V6.66678C19.9403 6.48544 19.8709 6.31153 19.7472 6.1833C19.6235 6.05507 19.4557 5.98303 19.2807 5.98303H15.0951V7.20473C15.0949 7.35247 15.1228 7.49879 15.1773 7.63532C15.2317 7.77185 15.3116 7.89591 15.4124 8.00037C15.5132 8.10483 15.6328 8.18765 15.7646 8.24409C15.8963 8.30052 16.0374 8.32946 16.1799 8.32924H18.8523L19.0625 8.93087L19.4311 9.97828L20.1343 11.9893C20.1518 12.0361 20.1818 12.0767 20.2207 12.1063C20.2597 12.136 20.306 12.1536 20.3542 12.1569H20.3736C20.4193 12.1569 20.4641 12.1442 20.5034 12.12C20.5427 12.0958 20.5749 12.0611 20.5967 12.0195L20.9524 11.3491V13.9115ZM18.8184 6.97347C18.7728 6.95634 18.7235 6.95307 18.6763 6.96406C18.629 6.97505 18.5857 6.99983 18.5516 7.03547C18.5173 7.07053 18.4935 7.11516 18.4832 7.16395C18.4729 7.21273 18.4764 7.26358 18.4934 7.31031L18.6179 7.66392H16.1395C16.034 7.66392 15.9329 7.62049 15.8583 7.54317C15.7837 7.46586 15.7418 7.361 15.7418 7.25166V6.6584H19.1369C19.1797 6.6584 19.2209 6.67606 19.2512 6.70749C19.2815 6.73892 19.2985 6.78154 19.2985 6.82599V7.16116L18.8184 6.97347ZM21.2709 9.75037C21.2288 9.77472 21.1941 9.81069 21.1706 9.85427L20.4205 11.2687L19.1563 7.66224L22.6354 8.97277L21.2709 9.75037Z" fill="white"/>
</g>
</g>
<defs>
<clipPath id="clip0_62_848">
<rect width="24" height="24" rx="5" fill="white"/>
</clipPath>
<clipPath id="clip1_62_848">
<rect width="24" height="24" fill="white"/>
</clipPath>
</defs>
</svg>
