<svg width="24" height="24" viewBox="0 0 24 24" fill="none" xmlns="http://www.w3.org/2000/svg">
<g clip-path="url(#clip0_61_465)">
<rect width="24" height="24" rx="5" fill="#D52940"/>
<g clip-path="url(#clip1_61_465)">
<path d="M18.6535 2.59803L17.4163 2.40939L16.8648 1.2419C16.832 1.16952 16.7801 1.10837 16.7153 1.06555C16.6505 1.02273 16.5755 1 16.4988 1C16.4221 1 16.347 1.02273 16.2822 1.06555C16.2174 1.10837 16.1656 1.16952 16.1327 1.2419L15.5813 2.40939L14.3465 2.59803C14.2718 2.60943 14.2016 2.64243 14.1439 2.6933C14.0862 2.74417 14.0432 2.81089 14.0198 2.88591C13.9965 2.96094 13.9937 3.04129 14.0117 3.11789C14.0298 3.1945 14.068 3.2643 14.122 3.31943L15.0151 4.22946L14.8028 5.50402C14.7906 5.5823 14.7994 5.6626 14.8282 5.73597C14.8571 5.80933 14.9049 5.87288 14.9663 5.91953C15.0276 5.96605 15.1001 5.9936 15.1756 5.99901C15.2512 6.00443 15.3266 5.98748 15.3934 5.95012L16.4963 5.34343L17.6018 5.95012C17.6596 5.98228 17.7241 5.99892 17.7897 5.99855C17.877 6.00058 17.9627 5.97284 18.0337 5.91953C18.0946 5.87258 18.142 5.80889 18.1704 5.73555C18.1988 5.6622 18.2073 5.58206 18.1947 5.50402L17.9824 4.22946L18.878 3.31943C18.932 3.2643 18.9702 3.1945 18.9883 3.11789C19.0063 3.04129 19.0035 2.96094 18.9802 2.88591C18.9568 2.81089 18.9138 2.74417 18.8561 2.6933C18.7984 2.64243 18.7282 2.60943 18.6535 2.59803ZM17.6628 3.87259C17.5908 3.94488 17.5369 4.03452 17.5059 4.13363C17.4748 4.23274 17.4675 4.3383 17.4846 4.44104L17.6481 5.44284L16.7892 4.97126C16.7005 4.92205 16.6016 4.89665 16.5012 4.89733C16.4016 4.89642 16.3034 4.92186 16.2157 4.97126L15.3543 5.44284L15.5178 4.44104C15.5352 4.3385 15.5283 4.23308 15.4977 4.13398C15.467 4.03488 15.4136 3.94513 15.3421 3.87259L14.6467 3.16393L15.6081 3.01608C15.7071 3.00159 15.8011 2.96194 15.8819 2.9006C15.9628 2.83926 16.0279 2.75812 16.0717 2.6643L16.5012 1.75427L16.9331 2.6643C16.9762 2.75867 17.0412 2.84028 17.1222 2.90172C17.2032 2.96315 17.2976 3.00247 17.3968 3.01608L18.3582 3.16393L17.6628 3.87259Z" fill="white"/>
<path d="M12.6354 2.5952L11.4056 2.4069L10.8563 1.24147C10.8236 1.16922 10.772 1.10818 10.7075 1.06544C10.6429 1.02269 10.5681 1 10.4918 1C10.4154 1 10.3406 1.02269 10.2761 1.06544C10.2115 1.10818 10.1599 1.16922 10.1272 1.24147L9.57549 2.4069L8.34568 2.5952C8.27128 2.60683 8.20142 2.63987 8.14391 2.69064C8.0864 2.74142 8.0435 2.80793 8.02 2.88275C7.99653 2.95761 7.99365 3.03789 8.01171 3.11438C8.02976 3.19088 8.06801 3.26052 8.12208 3.31533L9.01163 4.22376L8.80261 5.49606C8.79013 5.57397 8.79852 5.65396 8.82684 5.72718C8.85515 5.80039 8.90229 5.86396 8.96301 5.91083C9.024 5.95728 9.09625 5.98478 9.17148 5.99018C9.24672 5.99558 9.32188 5.97866 9.38834 5.94137L10.4893 5.33575L11.6049 5.95155C11.6634 5.98366 11.7285 6.00026 11.7945 5.9999C11.8815 6.00192 11.9669 5.97423 12.0375 5.92101C12.0983 5.87414 12.1454 5.81057 12.1737 5.73736C12.202 5.66414 12.2104 5.58414 12.1979 5.50624L11.9889 4.23393L12.8785 3.32551C12.9323 3.27048 12.9703 3.20079 12.9883 3.12433C13.0063 3.04786 13.0035 2.96765 12.9802 2.89276C12.957 2.81786 12.9142 2.75127 12.8567 2.70049C12.7992 2.64971 12.7293 2.61677 12.6549 2.60538L12.6354 2.5952Z" fill="white"/>
<path d="M7.64646 2.59478L6.41163 2.40652L5.86011 1.2414C5.82727 1.16918 5.77543 1.10815 5.71063 1.06542C5.64584 1.02269 5.57073 1 5.49406 1C5.41738 1 5.34228 1.02269 5.27748 1.06542C5.21268 1.10815 5.16085 1.16918 5.128 1.2414L4.58136 2.40652L3.34653 2.59478C3.2718 2.60616 3.20161 2.63909 3.14389 2.68986C3.08616 2.74062 3.0432 2.8072 3.01985 2.88208C2.9965 2.95695 2.99369 3.03713 3.01175 3.11358C3.0298 3.19003 3.068 3.25969 3.12202 3.31471L4.01519 4.22289L3.80288 5.49486C3.79092 5.57271 3.7996 5.6525 3.82798 5.72558C3.85637 5.79867 3.90339 5.86227 3.96395 5.90952C4.03516 5.96223 4.12066 5.98986 4.20798 5.98838C4.27349 5.98875 4.33806 5.97214 4.39589 5.94005L5.50138 5.33459L6.60686 5.95022C6.6736 5.9875 6.74907 6.00442 6.82461 5.99902C6.90015 5.99362 6.97269 5.96612 7.03393 5.91969C7.09448 5.87245 7.1415 5.80884 7.16989 5.73576C7.19828 5.66267 7.20696 5.58289 7.19499 5.50503L6.98268 4.23307L7.87829 3.32488C7.93236 3.2697 7.97053 3.19983 7.98846 3.1232C8.00639 3.04656 8.00338 2.96623 7.97975 2.89129C7.95613 2.81635 7.91284 2.7498 7.8548 2.6992C7.79675 2.64859 7.72627 2.61594 7.65134 2.60495L7.64646 2.59478Z" fill="white"/>
<path d="M17.6524 13.0062L17.0303 12.7655C16.8621 12.6978 16.6989 12.6189 16.5416 12.5292C16.5331 12.5257 16.5251 12.5212 16.5176 12.5158C16.2467 12.3614 15.9951 12.1759 15.768 11.9631L13.4683 9.37328L13.4414 9.34802C13.3141 9.20203 13.1539 9.08797 12.9736 9.01519C12.4189 8.79231 11.7548 8.9825 11.1042 9.5501C10.4526 10.1583 9.94786 10.9044 9.62755 11.7328C9.2759 12.5484 9.11497 13.4322 9.15682 14.3182C9.22578 15.1725 9.57058 15.7669 10.1253 15.9912C10.277 16.0511 10.4387 16.0818 10.602 16.0819C10.6616 16.0816 10.7212 16.0776 10.7804 16.07L14.1999 15.804C14.2869 15.804 14.3723 15.804 14.4593 15.8159L13.8056 16.593C13.7435 16.6679 13.7008 16.7568 13.6812 16.8519C13.6617 16.947 13.6659 17.0453 13.6936 17.1384C13.7212 17.2314 13.7715 17.3164 13.8399 17.3858C13.9083 17.4552 13.9928 17.5069 14.086 17.5365L14.4713 17.6584C14.5547 17.6842 14.6417 17.6973 14.7291 17.697C14.8559 17.6969 14.981 17.6686 15.0952 17.6141C15.2094 17.5595 15.3097 17.4802 15.3887 17.382L16.2447 16.33L16.2897 16.3478C16.3784 16.3831 16.473 16.4013 16.5686 16.4013C16.8408 16.3868 17.0983 16.2743 17.2926 16.0848C17.5945 15.8052 17.8283 15.4613 17.9762 15.0789C18.3615 14.1265 18.2206 13.2365 17.6524 13.0062ZM12.8327 13.0181C12.7329 13.2632 12.6177 13.5019 12.4879 13.7328L11.9452 13.4549C12.1145 13.2689 12.2481 13.0539 12.3395 12.8204C12.4388 12.5899 12.4937 12.343 12.5014 12.0924L13.0861 12.2677C13.0176 12.5229 12.933 12.7735 12.8327 13.0181ZM11.7923 11.9007C11.8068 11.9519 11.8134 12.005 11.8118 12.0582C11.8081 12.232 11.7709 12.4034 11.7024 12.5634C11.6286 12.78 11.4887 12.9684 11.3021 13.1028C11.2616 12.878 11.2931 12.6463 11.392 12.4401C11.4663 12.2237 11.606 12.0354 11.7923 11.9007ZM9.84342 14.2647C9.8086 13.4836 9.95262 12.7049 10.2647 11.9869C10.5442 11.2546 10.987 10.5943 11.5599 10.0553C11.9002 9.75811 12.2301 9.6021 12.4999 9.6021C12.5748 9.60135 12.6491 9.61497 12.7188 9.64222C13.0591 9.77892 13.2705 10.2915 13.2705 11.0122C13.2698 11.207 13.2557 11.4016 13.2285 11.5946L12.0636 11.2469H12.0547L12.0352 11.2395C11.5854 11.0909 11.0517 11.4743 10.7609 12.1845C10.6467 12.4602 10.5955 12.7576 10.611 13.0552C10.6109 13.1951 10.6487 13.3325 10.7204 13.4529C10.7921 13.5734 10.8951 13.6726 11.0187 13.7402L12.1266 14.3063C11.9576 14.5385 11.7636 14.7517 11.5479 14.9422C11.3173 15.1655 11.0279 15.32 10.7129 15.388H10.6889H10.662C10.5697 15.396 10.4768 15.3828 10.3906 15.3494C10.0833 15.2394 9.8869 14.8457 9.84043 14.2647H9.84342ZM14.1909 15.1235H14.1609L12.1851 15.2721C12.7422 14.6939 13.1792 14.0129 13.4713 13.2677C13.6267 12.8909 13.7476 12.501 13.8326 12.1028V12.079C13.9135 11.7035 13.9517 11.3203 13.9466 10.9364L15.2613 12.4133C15.2679 12.4206 15.2749 12.4276 15.2823 12.4341C15.5319 12.6698 15.8069 12.8776 16.1023 13.0537C16.1938 13.2825 16.1803 13.7536 15.9689 14.2706C15.7575 14.7877 15.4352 15.1384 15.2073 15.2364C14.8731 15.1625 14.5318 15.1246 14.1894 15.1235H14.1909ZM14.8535 16.9556C14.8333 16.9811 14.8056 16.9998 14.7742 17.0091C14.7428 17.0184 14.7092 17.0179 14.6781 17.0076L14.4188 16.9273L15.2388 15.9511L15.1549 15.9303C15.1783 15.9326 15.2019 15.9326 15.2253 15.9303H15.2523L15.2388 15.9437C15.3543 15.9764 15.4667 16.0135 15.5791 16.0551L14.8535 16.9556ZM17.3391 14.8248C17.2295 15.106 17.0585 15.3597 16.8384 15.5678C16.6885 15.6956 16.582 15.7164 16.5491 15.7089L16.0004 15.489C16.5255 14.9187 16.8266 14.1806 16.8489 13.4088L17.3961 13.6273C17.489 13.6763 17.621 14.1428 17.3376 14.8248H17.3391Z" fill="white"/>
<path d="M15.2508 15.9374L15.2373 15.9502L15.1534 15.9303C15.1768 15.9325 15.2004 15.9325 15.2238 15.9303H15.2508V15.9374Z" fill="white"/>
<path d="M15.2508 15.9374L15.2373 15.9502L15.1534 15.9303C15.1768 15.9325 15.2004 15.9325 15.2238 15.9303H15.2508V15.9374Z" fill="white"/>
<path d="M5.88722 9.76409C5.8686 9.81099 5.85954 9.86109 5.86055 9.91149C5.86156 9.96188 5.87263 10.0116 5.89312 10.0577C5.9136 10.1039 5.9431 10.1455 5.97992 10.1803C6.01673 10.2151 6.06012 10.2423 6.1076 10.2604L8.54519 11.1979C8.628 11.2289 8.71898 11.2309 8.80307 11.2036C8.88717 11.1763 8.95933 11.1213 9.00761 11.0478C9.05589 10.9743 9.07738 10.8866 9.06853 10.7994C9.05969 10.7121 9.02103 10.6304 8.95896 10.5679C8.92111 10.5302 8.87564 10.5008 8.82553 10.4817L6.38794 9.54418C6.2921 9.50781 6.18562 9.51053 6.0918 9.55173C5.99797 9.59294 5.92442 9.66929 5.88722 9.76409Z" fill="white"/>
<path d="M8.4762 12.1964C8.45827 12.1355 8.4247 12.0802 8.37876 12.0359C8.32964 11.9864 8.26773 11.9511 8.19978 11.9341C8.13183 11.9171 8.06046 11.9189 7.99348 11.9393L5.74477 12.6095C5.69576 12.6237 5.65007 12.6474 5.61034 12.6792C5.57061 12.7109 5.53762 12.7502 5.51329 12.7947C5.48895 12.8392 5.47375 12.8881 5.46856 12.9384C5.46336 12.9888 5.46828 13.0396 5.48303 13.0881C5.49778 13.1366 5.52206 13.1816 5.55448 13.2208C5.5869 13.2599 5.62681 13.2922 5.67191 13.316C5.71701 13.3397 5.76641 13.3544 5.81725 13.3591C5.86809 13.3638 5.91938 13.3585 5.96814 13.3435L8.21685 12.6734C8.31502 12.6441 8.39748 12.5775 8.44611 12.4881C8.49474 12.3986 8.50556 12.2937 8.4762 12.1964Z" fill="white"/>
<path d="M7.72668 7.57392L8.92599 9.56941C8.95207 9.61263 8.98649 9.65033 9.02728 9.68037C9.06806 9.71041 9.11442 9.73219 9.1637 9.74447C9.21298 9.75675 9.26422 9.75928 9.31449 9.75194C9.36476 9.74459 9.41307 9.7275 9.45668 9.70165C9.50029 9.6758 9.53833 9.64168 9.56863 9.60126C9.59894 9.56083 9.62091 9.51489 9.6333 9.46604C9.64569 9.4172 9.64825 9.36642 9.64084 9.31659C9.63343 9.26677 9.61619 9.21888 9.5901 9.17566L8.39079 7.18017C8.37384 7.15354 8.35426 7.12866 8.33233 7.10588C8.2649 7.04237 8.17672 7.00496 8.08381 7.00046C7.99091 6.99596 7.89946 7.02466 7.82611 7.08135C7.75275 7.13803 7.70237 7.21894 7.68412 7.30934C7.66587 7.39974 7.68097 7.49362 7.72668 7.57392Z" fill="white"/>
<path d="M20.3914 19.5023V9.7284C20.3914 9.61659 20.3692 9.50588 20.326 9.40259C20.2829 9.29929 20.2196 9.20543 20.1398 9.12638C20.0601 9.04732 19.9654 8.9846 19.8611 8.94182C19.7569 8.89903 19.6452 8.87701 19.5324 8.87701H14.9615C14.9129 8.87681 14.8646 8.88617 14.8196 8.90455C14.7746 8.92292 14.7337 8.94995 14.6993 8.98406C14.6648 9.01818 14.6376 9.05872 14.619 9.10334C14.6005 9.14795 14.5911 9.19576 14.5913 9.24401C14.5913 9.29214 14.6008 9.33979 14.6195 9.38423C14.6381 9.42868 14.6654 9.46904 14.6998 9.503C14.7342 9.53696 14.775 9.56385 14.82 9.58214C14.8649 9.60042 14.913 9.60973 14.9615 9.60953H19.4919C19.5341 9.60953 19.5745 9.62613 19.6043 9.65566C19.6341 9.6852 19.6508 9.72526 19.6508 9.76703V19.5023H4.35065V9.75217C4.35065 9.71277 4.36645 9.67497 4.39456 9.64711C4.42267 9.61924 4.4608 9.60359 4.50056 9.60359H4.7869C4.83545 9.60378 4.88357 9.59447 4.92849 9.57619C4.97341 9.55791 5.01424 9.53102 5.04864 9.49706C5.08304 9.4631 5.11034 9.42274 5.12897 9.37829C5.1476 9.33385 5.15719 9.2862 5.15719 9.23807C5.15738 9.18982 5.14794 9.14201 5.1294 9.09739C5.11086 9.05278 5.0836 9.01224 5.04917 8.97812C5.01475 8.944 4.97385 8.91698 4.92884 8.8986C4.88382 8.88023 4.83558 8.87087 4.7869 8.87107H4.4421C4.22143 8.87107 4.0098 8.95795 3.85377 9.1126C3.69774 9.26725 3.61008 9.477 3.61008 9.69571V19.5023H2.5277C2.4584 19.5023 2.38978 19.5158 2.32576 19.5421C2.26173 19.5684 2.20356 19.6069 2.15456 19.6555C2.10556 19.7041 2.06669 19.7617 2.04017 19.8252C2.01365 19.8886 2 19.9566 2 20.0253V21.477C1.9998 21.5457 2.01332 21.6138 2.03977 21.6774C2.06622 21.7409 2.10508 21.7986 2.15412 21.8473C2.20316 21.8959 2.26141 21.9344 2.32552 21.9606C2.38964 21.9868 2.45835 22.0002 2.5277 22H21.2669C21.3631 22.0002 21.4584 21.9816 21.5473 21.9452C21.6363 21.9089 21.7171 21.8555 21.7852 21.7882C21.8533 21.7208 21.9073 21.6408 21.9442 21.5527C21.981 21.4647 22 21.3703 22 21.2749V20.2348C22 20.0421 21.9228 19.8573 21.7853 19.721C21.6478 19.5848 21.4613 19.5082 21.2669 19.5082L20.3914 19.5023ZM21.2459 21.2675H2.75557C2.74816 21.2675 2.74082 21.266 2.73399 21.2632C2.72716 21.2603 2.72098 21.2561 2.71581 21.2509C2.71064 21.2456 2.70658 21.2394 2.70388 21.2325C2.70119 21.2257 2.6999 21.2184 2.7001 21.211V20.2913C2.7001 20.2767 2.70594 20.2627 2.71635 20.2524C2.72675 20.2421 2.74086 20.2363 2.75557 20.2363H21.2459C21.2605 20.2367 21.2744 20.2426 21.2847 20.2528C21.2951 20.2631 21.301 20.2768 21.3014 20.2913V21.211C21.3014 21.2257 21.2956 21.2399 21.2852 21.2504C21.2749 21.261 21.2608 21.2671 21.2459 21.2675Z" fill="white"/>
</g>
</g>
<defs>
<clipPath id="clip0_61_465">
<rect width="24" height="24" rx="5" fill="white"/>
</clipPath>
<clipPath id="clip1_61_465">
<rect width="24" height="24" fill="white"/>
</clipPath>
</defs>
</svg>
