<svg width="24" height="24" viewBox="0 0 24 24" fill="none" xmlns="http://www.w3.org/2000/svg">
<g clip-path="url(#clip0_94_97)">
<rect width="24" height="24" rx="5" fill="#F0F0F1"/>
<rect width="24" height="24" fill="#D52940"/>
<path d="M12.0488 14.7586C12.0484 14.8205 12.036 14.8818 12.0124 14.939C11.991 14.991 11.9595 15.0382 11.9197 15.078C11.9197 15.078 11.9198 15.0896 11.9098 15.0929L10.0102 16.9925C9.91937 17.065 9.80515 17.1017 9.68911 17.0957C9.57307 17.0896 9.46327 17.0413 9.3805 16.9597C9.29773 16.8782 9.24772 16.7691 9.23995 16.6532C9.23218 16.5372 9.2672 16.4225 9.33835 16.3306L10.4272 15.2401H6.97205C5.90712 15.1628 4.90951 14.6904 4.17482 13.9156C3.44014 13.1408 3.02138 12.1195 3.00067 11.052C2.99978 11.0365 2.99978 11.0211 3.00067 11.0056C3.00067 10.9792 3.00067 10.956 3.00067 10.9295C3.02188 9.80973 3.48112 8.74283 4.27986 7.9577C5.0786 7.17258 6.15322 6.73175 7.27323 6.72979C7.33806 6.72596 7.40299 6.73543 7.46403 6.75761C7.52508 6.77978 7.58094 6.81421 7.62819 6.85876C7.67545 6.90331 7.71311 6.95705 7.73885 7.01668C7.76458 7.07632 7.77785 7.14058 7.77785 7.20552C7.77785 7.27047 7.76458 7.33473 7.73885 7.39437C7.71311 7.454 7.67545 7.50774 7.62819 7.55229C7.58094 7.59684 7.52508 7.63127 7.46403 7.65344C7.40299 7.67562 7.33806 7.68509 7.27323 7.68126C6.39666 7.6821 5.55583 8.02876 4.93338 8.64594C4.31092 9.26313 3.95713 10.101 3.94885 10.9775V11.0056C3.95732 11.8431 4.28127 12.6466 4.85607 13.2558C5.43087 13.865 6.21425 14.235 7.04984 14.292H10.4338L9.34497 13.2031C9.25588 13.1141 9.20582 12.9932 9.20582 12.8672C9.20582 12.7412 9.25588 12.6204 9.34497 12.5313C9.43406 12.4422 9.55488 12.3922 9.68087 12.3922C9.80686 12.3922 9.9277 12.4422 10.0168 12.5313L11.9164 14.4326C11.9607 14.4774 11.9961 14.5302 12.0207 14.5882C12.0402 14.6428 12.0498 14.7006 12.0488 14.7586Z" fill="white"/>
<path d="M20.9927 10.9213C20.9715 9.80174 20.5125 8.73509 19.7141 7.95001C18.9157 7.16493 17.8415 6.72391 16.7218 6.72152C16.6575 6.72123 16.5937 6.73402 16.5345 6.75912C16.4752 6.78422 16.4216 6.8211 16.3771 6.86753C16.3325 6.91396 16.2979 6.96896 16.2752 7.0292C16.2525 7.08943 16.2423 7.15365 16.2453 7.21794C16.2541 7.34349 16.3102 7.461 16.4024 7.54671C16.4945 7.63242 16.6158 7.67992 16.7417 7.67961C17.6157 7.68435 18.4527 8.03274 19.0719 8.64951C19.6912 9.26628 20.0429 10.1019 20.0512 10.9759V11.004C20.0427 11.8415 19.7187 12.645 19.1439 13.2541C18.5691 13.8633 17.7858 14.2333 16.9502 14.2903H14.2C14.1375 14.2905 14.0757 14.3032 14.0181 14.3275C13.9605 14.3518 13.9084 14.3873 13.8646 14.4319C13.8209 14.4766 13.7865 14.5295 13.7634 14.5876C13.7403 14.6456 13.729 14.7077 13.7301 14.7702V14.7801C13.7322 14.9032 13.7827 15.0204 13.8707 15.1065C13.9586 15.1926 14.0769 15.2406 14.2 15.2401H16.9949C18.0661 15.171 19.0723 14.702 19.814 13.926C20.5557 13.15 20.9787 12.1236 20.9993 11.0503C21.0002 11.0349 21.0002 11.0194 20.9993 11.004C20.9944 10.9709 20.9944 10.9477 20.9927 10.9213Z" fill="white"/>
<path d="M15.0803 6.53782V12.8143C15.0803 12.9426 15.0295 13.0656 14.9389 13.1565C14.8484 13.2474 14.7255 13.2987 14.5972 13.2991C14.4686 13.2991 14.3452 13.248 14.2543 13.1571C14.1634 13.0662 14.1123 12.9429 14.1123 12.8143V6.99453C14.1123 6.94031 14.098 6.88705 14.071 6.84003C14.044 6.79301 14.0052 6.75386 13.9584 6.72646L9.98705 4.43795C9.97113 4.42856 9.953 4.42357 9.93451 4.42349C9.91603 4.42342 9.89785 4.42826 9.88185 4.43752C9.86586 4.44678 9.85261 4.46013 9.84347 4.4762C9.83433 4.49227 9.82962 4.51048 9.82984 4.52896V11.0387C9.82984 11.1673 9.77876 11.2906 9.68784 11.3816C9.59691 11.4725 9.4736 11.5236 9.34501 11.5236C9.21671 11.5231 9.0938 11.4719 9.00323 11.381C8.91267 11.2901 8.86182 11.167 8.86182 11.0387V3.50798C8.86161 3.4229 8.88388 3.33928 8.92636 3.26557C8.96883 3.19185 9.03001 3.13067 9.10373 3.08818C9.17744 3.0457 9.26106 3.02344 9.34614 3.02364C9.43122 3.02384 9.51474 3.0465 9.58825 3.08933L9.82984 3.22999L14.4118 5.87758L14.8321 6.12082C14.9067 6.16213 14.969 6.2225 15.0126 6.29577C15.0562 6.36903 15.0796 6.45256 15.0803 6.53782Z" fill="white"/>
<path d="M15.0803 16.7675V17.3946C15.0804 17.4801 15.058 17.5641 15.0153 17.6382C14.9726 17.7123 14.9111 17.7738 14.8371 17.8166L9.83643 20.7041L9.79506 20.7289C9.70101 20.7828 9.59444 20.8111 9.48603 20.8109C9.37762 20.8107 9.27117 20.782 9.17734 20.7277C9.08351 20.6734 9.00559 20.5954 8.95137 20.5015C8.89715 20.4077 8.86854 20.3012 8.86841 20.1928V18.4619C8.86841 18.3985 8.88091 18.3356 8.90519 18.277C8.92947 18.2184 8.96506 18.1651 9.00993 18.1203C9.05479 18.0754 9.10805 18.0398 9.16667 18.0155C9.2253 17.9912 9.28813 17.9787 9.35158 17.9787C9.47988 17.9787 9.60296 18.0296 9.69384 18.1202C9.78472 18.2107 9.83599 18.3336 9.83643 18.4619V19.4101C9.83629 19.428 9.8409 19.4455 9.84978 19.461C9.85866 19.4765 9.87149 19.4894 9.88697 19.4983C9.90245 19.5072 9.92003 19.5119 9.93789 19.5118C9.95576 19.5117 9.97329 19.5069 9.98867 19.4978L13.9601 17.2093C14.0097 17.182 14.0511 17.1421 14.0802 17.0935C14.1093 17.0449 14.1249 16.9895 14.1255 16.9329V16.7675C14.126 16.6392 14.1772 16.5163 14.2681 16.4257C14.359 16.3351 14.4821 16.2843 14.6104 16.2843C14.7362 16.2877 14.8557 16.3401 14.9435 16.4304C15.0313 16.5206 15.0804 16.6416 15.0803 16.7675Z" fill="white"/>
</g>
<defs>
<clipPath id="clip0_94_97">
<rect width="24" height="24" rx="5" fill="white"/>
</clipPath>
</defs>
</svg>
