<svg width="24" height="24" viewBox="0 0 24 24" fill="none" xmlns="http://www.w3.org/2000/svg">
<g clip-path="url(#clip0_61_519)">
<rect width="24" height="24" rx="5" fill="#D52940"/>
<g clip-path="url(#clip1_61_519)">
<path d="M21.9987 9H2.00126C1.73606 9.00036 1.48181 9.10486 1.29416 9.29062C1.1065 9.47638 1.00073 9.72827 1 9.99115V15.0075C1.00037 15.2706 1.10598 15.5228 1.29367 15.7089C1.48136 15.8949 1.73582 15.9996 2.00126 16H21.9987C22.2639 15.9996 22.5182 15.8951 22.7058 15.7094C22.8935 15.5236 22.9993 15.2717 23 15.0088V9.99803C23.0004 9.86733 22.9748 9.73784 22.9246 9.61695C22.8745 9.49605 22.8009 9.38613 22.7079 9.29346C22.6149 9.20078 22.5044 9.12717 22.3828 9.07681C22.2611 9.02646 22.1306 9.00036 21.9987 9ZM22.264 15.0075C22.2638 15.0418 22.2568 15.0758 22.2434 15.1075C22.2299 15.1391 22.2103 15.1679 22.1857 15.192C22.1611 15.2162 22.1319 15.2353 22.0998 15.2483C22.0677 15.2612 22.0334 15.2678 21.9987 15.2676H2.00126C1.96626 15.2684 1.93147 15.2622 1.8989 15.2495C1.86634 15.2367 1.83666 15.2177 1.81158 15.1935C1.78651 15.1693 1.76655 15.1404 1.75286 15.1084C1.73917 15.0765 1.73203 15.0422 1.73185 15.0075V9.99666C1.73185 9.96219 1.73872 9.92807 1.75207 9.89625C1.76542 9.86442 1.78498 9.83553 1.80962 9.81122C1.83427 9.78692 1.86352 9.76768 1.8957 9.75462C1.92787 9.74155 1.96233 9.73492 1.9971 9.7351H21.9946C22.0293 9.73492 22.0638 9.74155 22.096 9.75462C22.1281 9.76768 22.1574 9.78692 22.182 9.81122C22.2067 9.83553 22.2262 9.86442 22.2396 9.89625C22.2529 9.92807 22.2598 9.96219 22.2598 9.99666L22.264 15.0075Z" fill="white"/>
<path d="M19.181 11.7587C19.181 12.4635 18.8075 12.8132 18.3714 12.8132C17.9354 12.8132 17.5868 12.4787 17.5812 11.8041C17.5757 11.1296 17.9506 10.7593 18.3978 10.7593C18.87 10.7593 19.181 11.12 19.181 11.7587ZM17.9451 11.789C17.9354 12.2157 18.0951 12.5406 18.3811 12.5406C18.6672 12.5406 18.8172 12.2213 18.8172 11.778C18.8172 11.3719 18.6978 11.0319 18.3811 11.0319C18.0951 11.0319 17.9451 11.3664 17.9451 11.789ZM21.378 13.1422C21.378 13.8484 21.0044 14.198 20.5725 14.198C20.1406 14.198 19.7893 13.8635 19.7837 13.1945C19.7782 12.5255 20.1517 12.1442 20.5989 12.1442C21.0697 12.1442 21.378 12.5048 21.378 13.1422ZM20.142 13.1739C20.142 13.6006 20.3031 13.9255 20.5836 13.9255C20.8642 13.9255 21.0197 13.6061 21.0197 13.1628C21.0197 12.7568 20.9003 12.4167 20.5836 12.4167C20.2976 12.4167 20.142 12.7512 20.142 13.1739ZM18.5325 14.2751L18.3714 14.1829C18.353 14.172 18.3396 14.1544 18.3341 14.1338C18.3287 14.1132 18.3316 14.0913 18.3423 14.0728L20.4142 10.517C20.4247 10.4986 20.4422 10.485 20.4627 10.4794C20.4833 10.4737 20.5053 10.4763 20.5239 10.4867L20.685 10.579C20.7035 10.5899 20.7169 10.6075 20.7223 10.6281C20.7278 10.6487 20.7248 10.6706 20.7142 10.6891L18.6422 14.2504C18.6317 14.2688 18.6143 14.2823 18.5937 14.288C18.5731 14.2937 18.5511 14.291 18.5325 14.2806V14.2751Z" fill="white"/>
<path d="M16.3134 10.4468H2.89705C2.86622 10.4472 2.83676 10.4595 2.81496 10.4811C2.79316 10.5027 2.78076 10.5319 2.7804 10.5625V14.4321C2.7804 14.4624 2.79254 14.4915 2.81416 14.5129C2.83577 14.5343 2.86509 14.5463 2.89566 14.5463H16.3134C16.3442 14.546 16.3737 14.5337 16.3955 14.5121C16.4173 14.4905 16.4297 14.4613 16.4301 14.4307V10.5625C16.4297 10.5319 16.4173 10.5027 16.3955 10.4811C16.3737 10.4595 16.3442 10.4472 16.3134 10.4468ZM15.8399 13.8883C15.8364 13.9129 15.8235 13.9352 15.8038 13.9506C15.7842 13.966 15.7593 13.9733 15.7343 13.9709H3.47475C3.44997 13.9733 3.42524 13.966 3.4058 13.9505C3.38636 13.9351 3.37373 13.9128 3.3706 13.8883V11.109C3.37374 11.0841 3.38651 11.0615 3.40621 11.0458C3.42591 11.0301 3.45099 11.0227 3.47614 11.025H15.7343C15.7595 11.0227 15.7845 11.0301 15.8042 11.0458C15.8239 11.0615 15.8367 11.0841 15.8399 11.109V13.8883Z" fill="white"/>
</g>
</g>
<defs>
<clipPath id="clip0_61_519">
<rect width="24" height="24" rx="5" fill="white"/>
</clipPath>
<clipPath id="clip1_61_519">
<rect width="24" height="24" fill="white"/>
</clipPath>
</defs>
</svg>
