<svg width="24" height="24" viewBox="0 0 24 24" fill="none" xmlns="http://www.w3.org/2000/svg">
<g clip-path="url(#clip0_57_222)">
<rect width="24" height="24" rx="5" fill="#F0F0F1"/>
<g clip-path="url(#clip1_57_222)">
<path d="M4.18574 10.6229V11.6677C4.18024 11.8169 4.20526 11.9657 4.25932 12.1051C4.31337 12.2446 4.39535 12.3718 4.50035 12.4793C4.60536 12.5868 4.73123 12.6723 4.87046 12.7307C5.00969 12.7891 5.15942 12.8192 5.31069 12.8192C5.46197 12.8192 5.6117 12.7891 5.75092 12.7307C5.89015 12.6723 6.01603 12.5868 6.12103 12.4793C6.22604 12.3718 6.30802 12.2446 6.36207 12.1051C6.41613 11.9657 6.44115 11.8169 6.43565 11.6677V10.6229C6.44115 10.4737 6.41613 10.325 6.36207 10.1855C6.30802 10.0461 6.22604 9.9188 6.12103 9.81133C6.01603 9.70385 5.89015 9.61837 5.75092 9.55998C5.6117 9.50159 5.46197 9.4715 5.31069 9.4715C5.15942 9.4715 5.00969 9.50159 4.87046 9.55998C4.73123 9.61837 4.60536 9.70385 4.50035 9.81133C4.39535 9.9188 4.31337 10.0461 4.25932 10.1855C4.20526 10.325 4.18024 10.4737 4.18574 10.6229ZM5.77365 10.6229V11.6677C5.77722 11.7299 5.7679 11.7922 5.74625 11.8507C5.7246 11.9092 5.69108 11.9627 5.64774 12.008C5.6044 12.0532 5.55215 12.0893 5.4942 12.1139C5.43624 12.1386 5.3738 12.1513 5.31069 12.1513C5.24759 12.1513 5.18514 12.1386 5.12719 12.1139C5.06923 12.0893 5.01699 12.0532 4.97365 12.008C4.93031 11.9627 4.89678 11.9092 4.87514 11.8507C4.85349 11.7922 4.84416 11.7299 4.84774 11.6677V10.6229C4.84416 10.5607 4.85349 10.4985 4.87514 10.44C4.89678 10.3815 4.93031 10.328 4.97365 10.2827C5.01699 10.2374 5.06923 10.2014 5.12719 10.1767C5.18514 10.1521 5.24759 10.1393 5.31069 10.1393C5.3738 10.1393 5.43624 10.1521 5.4942 10.1767C5.55215 10.2014 5.6044 10.2374 5.64774 10.2827C5.69108 10.328 5.7246 10.3815 5.74625 10.44C5.7679 10.4985 5.77722 10.5607 5.77365 10.6229Z" fill="#D52940"/>
<path d="M6.95442 10.6229V11.6677C6.94892 11.8169 6.97394 11.9657 7.02799 12.1051C7.08205 12.2446 7.16403 12.3718 7.26903 12.4793C7.37403 12.5868 7.49991 12.6723 7.63914 12.7307C7.77837 12.7891 7.92809 12.8192 8.07937 12.8192C8.23065 12.8192 8.38037 12.7891 8.5196 12.7307C8.65883 12.6723 8.78471 12.5868 8.88971 12.4793C8.99472 12.3718 9.07669 12.2446 9.13075 12.1051C9.1848 11.9657 9.20983 11.8169 9.20432 11.6677V10.6229C9.20983 10.4737 9.1848 10.325 9.13075 10.1855C9.07669 10.0461 8.99472 9.9188 8.88971 9.81133C8.78471 9.70385 8.65883 9.61837 8.5196 9.55998C8.38037 9.50159 8.23065 9.4715 8.07937 9.4715C7.92809 9.4715 7.77837 9.50159 7.63914 9.55998C7.49991 9.61837 7.37403 9.70385 7.26903 9.81133C7.16403 9.9188 7.08205 10.0461 7.02799 10.1855C6.97394 10.325 6.94892 10.4737 6.95442 10.6229ZM8.54232 10.6229V11.6677C8.5459 11.7299 8.53658 11.7922 8.51493 11.8507C8.49328 11.9092 8.45976 11.9627 8.41642 12.008C8.37308 12.0532 8.32083 12.0893 8.26288 12.1139C8.20492 12.1386 8.14248 12.1513 8.07937 12.1513C8.01626 12.1513 7.95382 12.1386 7.89587 12.1139C7.83791 12.0893 7.78566 12.0532 7.74232 12.008C7.69898 11.9627 7.66546 11.9092 7.64381 11.8507C7.62216 11.7922 7.61284 11.7299 7.61642 11.6677V10.6229C7.61284 10.5607 7.62216 10.4985 7.64381 10.44C7.66546 10.3815 7.69898 10.328 7.74232 10.2827C7.78566 10.2374 7.83791 10.2014 7.89587 10.1767C7.95382 10.1521 8.01626 10.1393 8.07937 10.1393C8.14248 10.1393 8.20492 10.1521 8.26288 10.1767C8.32083 10.2014 8.37308 10.2374 8.41642 10.2827C8.45976 10.328 8.49328 10.3815 8.51493 10.44C8.53658 10.4985 8.5459 10.5607 8.54232 10.6229Z" fill="#D52940"/>
<path d="M10.9697 10.6229V11.6677C10.9642 11.8169 10.9892 11.9657 11.0433 12.1051C11.0973 12.2446 11.1793 12.3718 11.2843 12.4793C11.3893 12.5868 11.5152 12.6723 11.6544 12.7307C11.7936 12.7891 11.9434 12.8192 12.0946 12.8192C12.2459 12.8192 12.3956 12.7891 12.5349 12.7307C12.6741 12.6723 12.8 12.5868 12.905 12.4793C13.01 12.3718 13.092 12.2446 13.146 12.1051C13.2001 11.9657 13.2251 11.8169 13.2196 11.6677V10.6229C13.2251 10.4737 13.2001 10.325 13.146 10.1855C13.092 10.0461 13.01 9.9188 12.905 9.81133C12.8 9.70385 12.6741 9.61837 12.5349 9.55998C12.3956 9.50159 12.2459 9.4715 12.0946 9.4715C11.9434 9.4715 11.7936 9.50159 11.6544 9.55998C11.5152 9.61837 11.3893 9.70385 11.2843 9.81133C11.1793 9.9188 11.0973 10.0461 11.0433 10.1855C10.9892 10.325 10.9642 10.4737 10.9697 10.6229ZM12.5576 10.6229V11.6677C12.5612 11.7299 12.5518 11.7922 12.5302 11.8507C12.5085 11.9092 12.475 11.9627 12.4317 12.008C12.3883 12.0532 12.3361 12.0893 12.2781 12.1139C12.2202 12.1386 12.1577 12.1513 12.0946 12.1513C12.0315 12.1513 11.9691 12.1386 11.9111 12.1139C11.8532 12.0893 11.8009 12.0532 11.7576 12.008C11.7142 11.9627 11.6807 11.9092 11.6591 11.8507C11.6374 11.7922 11.6281 11.7299 11.6317 11.6677V10.6229C11.6281 10.5607 11.6374 10.4985 11.6591 10.44C11.6807 10.3815 11.7142 10.328 11.7576 10.2827C11.8009 10.2374 11.8532 10.2014 11.9111 10.1767C11.9691 10.1521 12.0315 10.1393 12.0946 10.1393C12.1577 10.1393 12.2202 10.1521 12.2781 10.1767C12.3361 10.2014 12.3883 10.2374 12.4317 10.2827C12.475 10.328 12.5085 10.3815 12.5302 10.44C12.5518 10.4985 12.5612 10.5607 12.5576 10.6229Z" fill="#D52940"/>
<path d="M15.9675 11.6677V10.6229C15.9675 10.3283 15.8489 10.0457 15.6377 9.83731C15.4266 9.62895 15.1403 9.5119 14.8418 9.5119C14.5432 9.5119 14.2569 9.62895 14.0458 9.83731C13.8347 10.0457 13.7161 10.3283 13.7161 10.6229V11.6677C13.7161 11.9624 13.8347 12.2449 14.0458 12.4533C14.2569 12.6617 14.5432 12.7787 14.8418 12.7787C15.1403 12.7787 15.4266 12.6617 15.6377 12.4533C15.8489 12.2449 15.9675 11.9624 15.9675 11.6677ZM14.3781 11.6677V10.6229C14.3781 10.5015 14.4269 10.3851 14.5139 10.2993C14.6008 10.2135 14.7188 10.1653 14.8418 10.1653C14.9647 10.1653 15.0827 10.2135 15.1696 10.2993C15.2566 10.3851 15.3055 10.5015 15.3055 10.6229V11.6677C15.3055 11.7891 15.2566 11.9055 15.1696 11.9913C15.0827 12.0771 14.9647 12.1253 14.8418 12.1253C14.7188 12.1253 14.6008 12.0771 14.5139 11.9913C14.4269 11.9055 14.3781 11.7891 14.3781 11.6677Z" fill="#D52940"/>
<path d="M10.3271 10.3992C10.2646 10.3386 10.1807 10.3044 10.093 10.3036C10.0052 10.3036 9.92105 10.338 9.85897 10.3993C9.7969 10.4605 9.76202 10.5436 9.76202 10.6303C9.7628 10.7168 9.79755 10.7996 9.85894 10.8613C9.92112 10.9224 10.0053 10.9568 10.093 10.9569C10.1808 10.9569 10.265 10.9225 10.3271 10.8613C10.3892 10.8 10.424 10.7169 10.424 10.6303C10.4239 10.5437 10.389 10.4606 10.3271 10.3992Z" fill="#D52940"/>
<path d="M10.093 11.341C10.0052 11.341 9.92105 11.3754 9.85897 11.4367C9.7969 11.498 9.76202 11.581 9.76202 11.6677C9.76202 11.7543 9.7969 11.8374 9.85897 11.8987C9.92105 11.9599 10.0052 11.9944 10.093 11.9944C10.1808 11.9944 10.265 11.9599 10.3271 11.8987C10.3892 11.8374 10.424 11.7543 10.424 11.6677C10.424 11.581 10.3892 11.498 10.3271 11.4367C10.265 11.3754 10.1808 11.341 10.093 11.341Z" fill="#D52940"/>
<path d="M19.106 16.2677L19.8679 15.5496C19.8999 15.5197 19.9243 15.4828 19.9393 15.442C19.9544 15.4011 19.9595 15.3573 19.9544 15.3142L20.0155 13.2084C20.0173 13.171 20.0115 13.1336 19.9985 13.0985C19.9854 13.0633 19.9654 13.0311 19.9396 13.0037C19.9138 12.9762 19.8826 12.9542 19.848 12.9388C19.8135 12.9234 19.7761 12.915 19.7382 12.9141C19.662 12.9132 19.5884 12.9411 19.5324 12.9921C19.5054 13.0173 19.4837 13.0477 19.4686 13.0812C19.4535 13.1148 19.4453 13.151 19.4445 13.1878L19.3848 15.22L18.7109 15.8542C18.6559 15.9059 18.624 15.9771 18.6222 16.052C18.6204 16.1269 18.6488 16.1995 18.7012 16.2537C18.7536 16.308 18.8257 16.3395 18.9016 16.3413C18.9775 16.343 19.051 16.315 19.106 16.2633V16.2677Z" fill="#D52940"/>
<path d="M19.701 11.3984V8.16104C19.7006 7.85323 19.5765 7.55814 19.356 7.34049C19.1354 7.12284 18.8364 7.00039 18.5246 7H1.67639C1.36451 7.00039 1.06552 7.12284 0.844992 7.34049C0.624461 7.55814 0.500395 7.85323 0.5 8.16104V14.0339C0.500395 14.3417 0.624461 14.6368 0.844992 14.8545C1.06552 15.0721 1.36451 15.1946 1.67639 15.195H15.7946C15.7941 15.9449 16.0183 16.6783 16.439 17.3028C16.8597 17.9274 17.4581 18.4152 18.159 18.7049C18.86 18.9946 19.632 19.0732 20.3781 18.931C21.1242 18.7887 21.811 18.4319 22.3521 17.9053C22.8932 17.3788 23.2645 16.7061 23.4193 15.9719C23.574 15.2376 23.5053 14.4746 23.2218 13.7788C22.9382 13.083 22.4526 12.4855 21.8258 12.0614C21.1991 11.6373 20.4593 11.4056 19.6995 11.3955L19.701 11.3984ZM1.67788 14.3415C1.59589 14.3415 1.51723 14.3094 1.45911 14.2523C1.401 14.1953 1.36815 14.1178 1.36776 14.0369V8.16545C1.36776 8.08428 1.40043 8.00642 1.45859 7.94902C1.51675 7.89162 1.59563 7.85937 1.67788 7.85937H18.5261C18.6081 7.85976 18.6866 7.89218 18.7444 7.94954C18.8022 8.0069 18.8347 8.08453 18.8347 8.16545V11.4823C18.1213 11.635 17.4665 11.9845 16.9465 12.4901C16.4265 12.9958 16.0627 13.6368 15.8974 14.3385L1.67788 14.3415ZM19.6473 18.3794C19.0102 18.3791 18.3874 18.1924 17.8578 17.8428C17.3282 17.4933 16.9154 16.9966 16.6717 16.4156C16.428 15.8346 16.3644 15.1954 16.4887 14.5786C16.6131 13.9619 16.9199 13.3954 17.3705 12.9508C17.821 12.5062 18.3949 12.2033 19.0198 12.0806C19.6447 11.9578 20.2924 12.0207 20.8811 12.2612C21.4698 12.5017 21.973 12.909 22.3272 13.4318C22.6813 13.9545 22.8705 14.5691 22.8708 15.1979C22.8708 15.6157 22.7874 16.0294 22.6254 16.4154C22.4634 16.8014 22.226 17.1521 21.9267 17.4475C21.6273 17.743 21.272 17.9773 20.8809 18.1372C20.4898 18.2971 20.0706 18.3794 19.6473 18.3794Z" fill="#D52940"/>
</g>
</g>
<defs>
<clipPath id="clip0_57_222">
<rect width="24" height="24" rx="5" fill="white"/>
</clipPath>
<clipPath id="clip1_57_222">
<rect width="24" height="24" fill="white"/>
</clipPath>
</defs>
</svg>
