<svg width="24" height="24" viewBox="0 0 24 24" fill="none" xmlns="http://www.w3.org/2000/svg">
<g clip-path="url(#clip0_48_36)">
<rect width="24" height="24" rx="5" fill="#F0F0F1"/>
<g clip-path="url(#clip1_48_36)">
<path d="M6.82628 8.81036C7.28054 8.81036 7.64878 8.46666 7.64878 8.04269C7.64878 7.61872 7.28054 7.27502 6.82628 7.27502C6.37203 7.27502 6.00378 7.61872 6.00378 8.04269C6.00378 8.46666 6.37203 8.81036 6.82628 8.81036Z" fill="#D52940"/>
<path d="M6.82628 11.4971C7.28054 11.4971 7.64878 11.1534 7.64878 10.7295C7.64878 10.3055 7.28054 9.96179 6.82628 9.96179C6.37203 9.96179 6.00378 10.3055 6.00378 10.7295C6.00378 11.1534 6.37203 11.4971 6.82628 11.4971Z" fill="#D52940"/>
<path d="M6.82628 14.1852C7.28054 14.1852 7.64878 13.8415 7.64878 13.4175C7.64878 12.9935 7.28054 12.6498 6.82628 12.6498C6.37203 12.6498 6.00378 12.9935 6.00378 13.4175C6.00378 13.8415 6.37203 14.1852 6.82628 14.1852Z" fill="#D52940"/>
<path d="M17.8138 7.7218H9.00379C8.93752 7.7218 8.88379 7.77195 8.88379 7.8338V8.18614C8.88379 8.24799 8.93752 8.29814 9.00379 8.29814H17.8138C17.8801 8.29814 17.9338 8.24799 17.9338 8.18614V7.8338C17.9338 7.77195 17.8801 7.7218 17.8138 7.7218Z" fill="#D52940"/>
<path d="M17.8138 10.474H9.00379C8.93752 10.474 8.88379 10.5241 8.88379 10.586V10.9383C8.88379 11.0002 8.93752 11.0503 9.00379 11.0503H17.8138C17.8801 11.0503 17.9338 11.0002 17.9338 10.9383V10.586C17.9338 10.5241 17.8801 10.474 17.8138 10.474Z" fill="#D52940"/>
<path d="M17.8138 13.1608H9.00379C8.93752 13.1608 8.88379 13.211 8.88379 13.2728V13.6252C8.88379 13.687 8.93752 13.7372 9.00379 13.7372H17.8138C17.8801 13.7372 17.9338 13.687 17.9338 13.6252V13.2728C17.9338 13.211 17.8801 13.1608 17.8138 13.1608Z" fill="#D52940"/>
<path d="M1 4.61081V18.3892C1 18.5512 1.05813 18.7065 1.1616 18.8211C1.26506 18.9356 1.4054 19 1.55172 19H22.4483C22.5946 19 22.7349 18.9356 22.8384 18.8211C22.9419 18.7065 23 18.5512 23 18.3892V4.61081C23 4.44881 22.9419 4.29345 22.8384 4.1789C22.7349 4.06435 22.5946 4 22.4483 4H1.55034C1.40426 4.0004 1.26428 4.06494 1.16111 4.17944C1.05794 4.29395 1 4.44908 1 4.61081ZM22.4179 18.5449H1.58069C1.53544 18.5445 1.49215 18.5245 1.46015 18.489C1.42815 18.4536 1.41002 18.4057 1.40965 18.3556V4.64441C1.40965 4.59419 1.42767 4.54602 1.45975 4.51051C1.49183 4.475 1.53533 4.45505 1.58069 4.45505H22.4179C22.4633 4.45505 22.5068 4.475 22.5389 4.51051C22.5709 4.54602 22.589 4.59419 22.589 4.64441V18.3556C22.5886 18.4057 22.5705 18.4536 22.5385 18.489C22.5065 18.5245 22.4632 18.5445 22.4179 18.5449Z" fill="#D52940"/>
</g>
</g>
<defs>
<clipPath id="clip0_48_36">
<rect width="24" height="24" rx="5" fill="white"/>
</clipPath>
<clipPath id="clip1_48_36">
<rect width="24" height="24" fill="white"/>
</clipPath>
</defs>
</svg>
