<svg width="24" height="24" viewBox="0 0 24 24" fill="none" xmlns="http://www.w3.org/2000/svg">
<g clip-path="url(#clip0_57_212)">
<rect width="24" height="24" rx="5" fill="#F0F0F1"/>
<g clip-path="url(#clip1_57_212)">
<g opacity="0.8">
<path d="M20.5845 19H3.4224C3.0469 18.9985 2.6769 18.9218 2.34135 18.776C2.00581 18.6303 1.71381 18.4193 1.48821 18.1597C1.26261 17.9001 1.10953 17.5989 1.04094 17.2796C0.972357 16.9604 0.990124 16.6317 1.09286 16.3193L3.36503 9.53878C3.39765 9.44094 3.47004 9.35658 3.56886 9.30123C3.66769 9.24587 3.78631 9.22325 3.90289 9.23753C4.01947 9.2518 4.12617 9.302 4.20334 9.3789C4.28052 9.4558 4.32299 9.55422 4.32293 9.65605C4.32254 9.69569 4.31611 9.73512 4.3038 9.77332L2.04553 16.5584C1.98292 16.7434 1.97098 16.9385 2.01066 17.1282C2.05034 17.3179 2.14055 17.4971 2.27414 17.6514C2.40774 17.8057 2.58105 17.931 2.78035 18.0174C2.97965 18.1038 3.19947 18.1489 3.4224 18.149H20.5828C20.8052 18.1491 21.0246 18.1044 21.2237 18.0185C21.4228 17.9327 21.5961 17.808 21.7299 17.6544C21.8638 17.5007 21.9545 17.3223 21.995 17.1332C22.0354 16.944 22.0245 16.7493 21.9631 16.5644L19.4841 9.12383C19.469 9.08018 19.438 9.04193 19.3957 9.01482C19.3534 8.98772 19.3021 8.97321 19.2494 8.97348H15.4317C15.2934 8.97348 15.1607 8.92596 15.0629 8.84138C14.9651 8.75679 14.9102 8.64207 14.9102 8.52245C14.9102 8.40282 14.9651 8.2881 15.0629 8.20352C15.1607 8.11893 15.2934 8.07141 15.4317 8.07141H19.0547C19.3679 8.0723 19.6724 8.16056 19.923 8.32308C20.1735 8.4856 20.3568 8.7137 20.4455 8.97348L22.9071 16.3193C23.0097 16.6312 23.0276 16.9593 22.9594 17.2782C22.8912 17.597 22.7387 17.8979 22.5139 18.1574C22.2891 18.4168 21.998 18.6279 21.6633 18.774C21.3286 18.9202 20.9595 18.9975 20.5845 19Z" fill="#D52940"/>
<path d="M10.9 12.4429C10.9 13.1277 9.95586 13.9 8.70002 13.9C7.44419 13.9 6.50002 13.1302 6.50002 12.4429C6.50002 12.2496 6.44208 12.0643 6.33893 11.9277C6.23579 11.7911 6.09589 11.7143 5.95002 11.7143C5.80416 11.7143 5.66426 11.7911 5.56112 11.9277C5.45797 12.0643 5.40002 12.2496 5.40002 12.4429C5.40002 14.0724 6.84836 15.3572 8.70002 15.3572C10.5517 15.3572 12 14.0773 12 12.4429C12 12.2496 11.9421 12.0643 11.8389 11.9277C11.7358 11.7911 11.5959 11.7143 11.45 11.7143C11.3042 11.7143 11.1643 11.7911 11.0611 11.9277C10.958 12.0643 10.9 12.2496 10.9 12.4429Z" fill="#D52940"/>
<path d="M8.70182 4.42859C8.26655 4.42829 7.84095 4.5349 7.47888 4.73493C7.11681 4.93495 6.83455 5.21941 6.66781 5.55229C6.50108 5.88517 6.45736 6.25153 6.54218 6.60499C6.62701 6.95845 6.83658 7.28314 7.14437 7.53796C7.45215 7.79278 7.84432 7.96629 8.27125 8.03652C8.69818 8.10675 9.14067 8.07055 9.54274 7.93251C9.94482 7.79446 10.2884 7.56077 10.53 7.26101C10.7716 6.96125 10.9004 6.60888 10.9 6.24851C10.9 5.76584 10.6684 5.30293 10.2562 4.96163C9.84393 4.62033 9.28481 4.42859 8.70182 4.42859ZM8.70182 7.35432C8.43758 7.35462 8.17916 7.29002 7.95928 7.16869C7.73939 7.04737 7.56791 6.87477 7.46654 6.67273C7.36517 6.4707 7.33846 6.24831 7.38979 6.0337C7.44112 5.8191 7.56819 5.62192 7.75491 5.46712C7.94163 5.31232 8.17962 5.20685 8.43876 5.16406C8.6979 5.12127 8.96655 5.14308 9.21071 5.22673C9.45487 5.31038 9.66358 5.45212 9.81042 5.634C9.95727 5.81588 10.0356 6.02974 10.0356 6.24851C10.0359 6.39366 10.0016 6.53742 9.93464 6.67157C9.86772 6.80573 9.76951 6.92764 9.64562 7.03035C9.52174 7.13305 9.37462 7.21453 9.21268 7.27012C9.05073 7.32571 8.87713 7.35432 8.70182 7.35432Z" fill="#D52940"/>
<path d="M10.3354 2.29009C9.28881 1.9033 8.12561 1.9033 7.07897 2.29009H7.06712C6.44319 2.56065 5.88888 2.95526 5.44233 3.44677C4.99577 3.93828 4.66755 4.51503 4.48025 5.13737C4.29294 5.7597 4.25099 6.41285 4.35728 7.05191C4.46356 7.69097 4.71557 8.30077 5.09596 8.83938L7.55144 12.3476C7.67716 12.5263 7.84788 12.6728 8.04837 12.7742C8.24886 12.8755 8.47288 12.9286 8.70044 12.9286C8.928 12.9286 9.15202 12.8755 9.35251 12.7742C9.553 12.6728 9.72372 12.5263 9.84943 12.3476L12.3032 8.83938C12.6837 8.30097 12.9359 7.69136 13.0424 7.05245C13.1489 6.41354 13.1073 5.76049 12.9203 5.13818C12.7333 4.51588 12.4055 3.93908 11.9593 3.44743C11.5131 2.95579 10.9591 2.56096 10.3354 2.29009ZM11.6225 8.2956L9.01626 11.9825C8.98184 12.0315 8.93505 12.0717 8.88009 12.0995C8.82512 12.1273 8.76369 12.1419 8.70128 12.1419C8.63888 12.1419 8.57745 12.1273 8.52248 12.0995C8.46752 12.0717 8.42073 12.0315 8.38631 11.9825L5.77333 8.2956C5.4638 7.86199 5.25843 7.37003 5.17152 6.85401C5.08461 6.33799 5.11827 5.81033 5.27014 5.30782C5.42201 4.8053 5.68844 4.34003 6.05085 3.94442C6.41327 3.54882 6.86295 3.23241 7.36855 3.01725H7.37871C8.22802 2.70472 9.17116 2.70472 10.0205 3.01725C10.5264 3.23201 10.9766 3.54807 11.3395 3.94343C11.7025 4.33878 11.9695 4.80391 12.122 5.30641C12.2745 5.8089 12.3088 6.33666 12.2226 6.85292C12.1363 7.36917 11.9315 7.8615 11.6225 8.2956Z" fill="#D52940"/>
</g>
</g>
</g>
<defs>
<clipPath id="clip0_57_212">
<rect width="24" height="24" rx="5" fill="white"/>
</clipPath>
<clipPath id="clip1_57_212">
<rect width="24" height="24" fill="white"/>
</clipPath>
</defs>
</svg>
