<svg width="24" height="24" viewBox="0 0 24 24" fill="none" xmlns="http://www.w3.org/2000/svg">
<g clip-path="url(#clip0_57_252)">
<rect width="24" height="24" rx="5" fill="#F0F0F1"/>
<g clip-path="url(#clip1_57_252)">
<path d="M14.099 10H9.9058C9.77782 9.99963 9.65103 10.0227 9.53266 10.0678C9.41429 10.1129 9.30668 10.1792 9.21597 10.2629C9.12527 10.3466 9.05325 10.4461 9.00404 10.5557C8.95484 10.6652 8.9294 10.7827 8.9292 10.9014V14.7974C8.9292 15.0369 9.03176 15.2665 9.21433 15.4358C9.3969 15.6052 9.64451 15.7003 9.9027 15.7003H14.099C14.3571 15.7003 14.6048 15.6052 14.7873 15.4358C14.9699 15.2665 15.0725 15.0369 15.0725 14.7974V10.9014C15.072 10.6622 14.9693 10.4329 14.7868 10.2639C14.6043 10.0949 14.3569 10 14.099 10ZM14.4214 14.8449C14.4214 14.8775 14.4145 14.9099 14.401 14.9401C14.3875 14.9702 14.3677 14.9977 14.3428 15.0207C14.3179 15.0438 14.2884 15.0622 14.2558 15.0747C14.2233 15.0872 14.1884 15.0936 14.1532 15.0936H9.84844C9.81322 15.0936 9.77835 15.0872 9.74581 15.0747C9.71328 15.0622 9.68371 15.0438 9.65881 15.0207C9.63391 14.9977 9.61415 14.9702 9.60068 14.9401C9.5872 14.9099 9.58026 14.8775 9.58026 14.8449V10.8525C9.58006 10.8198 9.58685 10.7874 9.60026 10.7571C9.61366 10.7269 9.63341 10.6994 9.65835 10.6762C9.6833 10.6531 9.71294 10.6348 9.74557 10.6224C9.7782 10.6099 9.81316 10.6036 9.84844 10.6038H14.1532C14.1885 10.6036 14.2235 10.6099 14.2561 10.6224C14.2887 10.6348 14.3184 10.6531 14.3433 10.6762C14.3682 10.6994 14.388 10.7269 14.4014 10.7571C14.4148 10.7874 14.4216 10.8198 14.4214 10.8525V14.8449Z" fill="#D52940"/>
<path d="M21.0265 16.3026H16.8302C16.5721 16.3026 16.3244 16.3977 16.1419 16.567C15.9593 16.7364 15.8568 16.966 15.8568 17.2055V21.0972C15.8568 21.3366 15.9593 21.5663 16.1419 21.7356C16.3244 21.9049 16.5721 22 16.8302 22H21.0265C21.2847 22 21.5323 21.9049 21.7149 21.7356C21.8974 21.5663 22 21.3366 22 21.0972V17.2055C22 16.966 21.8974 16.7364 21.7149 16.567C21.5323 16.3977 21.2847 16.3026 21.0265 16.3026ZM21.3489 21.1475C21.3489 21.2134 21.3207 21.2767 21.2704 21.3234C21.2201 21.37 21.1519 21.3962 21.0808 21.3962H16.776C16.7407 21.3964 16.7058 21.3901 16.6731 21.3777C16.6405 21.3652 16.6108 21.3469 16.5859 21.3238C16.561 21.3006 16.5412 21.2732 16.5278 21.2429C16.5144 21.2126 16.5076 21.1802 16.5078 21.1475V17.1551C16.5076 17.1224 16.5144 17.09 16.5278 17.0597C16.5412 17.0295 16.561 17.002 16.5859 16.9788C16.6108 16.9557 16.6405 16.9374 16.6731 16.925C16.7058 16.9125 16.7407 16.9062 16.776 16.9064H21.0808C21.1519 16.9064 21.2201 16.9326 21.2704 16.9793C21.3207 17.0259 21.3489 17.0892 21.3489 17.1551V21.1475Z" fill="#D52940"/>
<path d="M7.17286 16.3026H2.97505C2.84707 16.3024 2.72032 16.3256 2.60203 16.3709C2.48374 16.4162 2.37624 16.4827 2.28568 16.5665C2.19512 16.6504 2.12327 16.75 2.07425 16.8596C2.02523 16.9693 2 17.0868 2 17.2055V21.0972C2 21.3366 2.10256 21.5663 2.28513 21.7356C2.4677 21.9049 2.71531 22 2.9735 22H7.17286C7.43078 21.9996 7.67799 21.9043 7.86022 21.7351C8.04245 21.5658 8.1448 21.3364 8.1448 21.0972V17.2055C8.1448 16.9663 8.04245 16.7368 7.86022 16.5676C7.67799 16.3983 7.43078 16.303 7.17286 16.3026ZM7.49374 21.1475C7.49394 21.1802 7.48715 21.2126 7.47374 21.2429C7.46034 21.2732 7.44059 21.3006 7.41565 21.3238C7.39071 21.3469 7.36106 21.3652 7.32843 21.3777C7.2958 21.3901 7.26084 21.3964 7.22556 21.3962H2.92079C2.84967 21.3962 2.78145 21.37 2.73116 21.3234C2.68087 21.2767 2.65261 21.2135 2.65261 21.1475V17.1551C2.65261 17.0892 2.68087 17.0259 2.73116 16.9793C2.78145 16.9326 2.84967 16.9064 2.92079 16.9064H7.22556C7.26084 16.9062 7.2958 16.9125 7.32843 16.925C7.36106 16.9374 7.39071 16.9557 7.41565 16.9788C7.44059 17.002 7.46034 17.0295 7.47374 17.0597C7.48715 17.09 7.49394 17.1224 7.49374 17.1551V21.1475Z" fill="#D52940"/>
<path d="M9.90575 22H14.102C14.3602 22 14.6078 21.9049 14.7904 21.7356C14.9729 21.5663 15.0755 21.3366 15.0755 21.0972V17.2055C15.0755 16.966 14.9729 16.7364 14.7904 16.567C14.6078 16.3977 14.3602 16.3026 14.102 16.3026H9.90575C9.64756 16.3026 9.39995 16.3977 9.21738 16.567C9.03482 16.7364 8.93225 16.966 8.93225 17.2055V21.0972C8.93225 21.3366 9.03482 21.5663 9.21738 21.7356C9.39995 21.9049 9.64756 22 9.90575 22ZM9.58331 17.1551C9.58311 17.1224 9.58991 17.09 9.60331 17.0597C9.61671 17.0295 9.63646 17.002 9.6614 16.9788C9.68635 16.9557 9.71599 16.9374 9.74862 16.925C9.78125 16.9125 9.81622 16.9062 9.85149 16.9064H14.1532C14.1884 16.9062 14.2234 16.9125 14.256 16.925C14.2887 16.9374 14.3183 16.9557 14.3432 16.9788C14.3682 17.002 14.3879 17.0295 14.4013 17.0597C14.4147 17.09 14.4215 17.1224 14.4213 17.1551V21.1475C14.4215 21.1802 14.4147 21.2126 14.4013 21.2429C14.3879 21.2732 14.3682 21.3006 14.3432 21.3238C14.3183 21.3469 14.2887 21.3652 14.256 21.3777C14.2234 21.3901 14.1884 21.3964 14.1532 21.3962H9.84839C9.81312 21.3964 9.77815 21.3901 9.74552 21.3777C9.71289 21.3652 9.68325 21.3469 9.6583 21.3238C9.63336 21.3006 9.61361 21.2732 9.60021 21.2429C9.5868 21.2126 9.58001 21.1802 9.58021 21.1475L9.58331 17.1551Z" fill="#D52940"/>
<path d="M2.97505 15.6974H7.17286C7.43024 15.697 7.67699 15.6021 7.85913 15.4335C8.04127 15.2648 8.14398 15.0361 8.1448 14.7974V10.9014C8.1448 10.6623 8.0424 10.4331 7.86013 10.264C7.67785 10.095 7.43063 10 7.17286 10H2.97505C2.8472 9.99981 2.72057 10.023 2.60239 10.0682C2.4842 10.1134 2.37677 10.1797 2.28623 10.2634C2.19568 10.3471 2.12381 10.4465 2.0747 10.556C2.02559 10.6655 2.0002 10.7828 2 10.9014V14.7974C2.00082 15.0366 2.10396 15.2658 2.28677 15.4345C2.46958 15.6032 2.71713 15.6978 2.97505 15.6974ZM2.65261 10.8525C2.65261 10.7866 2.68087 10.7233 2.73116 10.6767C2.78145 10.63 2.84967 10.6038 2.92079 10.6038H7.22556C7.26084 10.6036 7.2958 10.6099 7.32843 10.6224C7.36106 10.6348 7.39071 10.6531 7.41565 10.6762C7.44059 10.6994 7.46034 10.7269 7.47374 10.7571C7.48715 10.7874 7.49394 10.8198 7.49374 10.8525V14.8449C7.49374 14.8775 7.4868 14.9099 7.47332 14.9401C7.45985 14.9702 7.44009 14.9976 7.41519 15.0207C7.39029 15.0438 7.36072 15.0622 7.32819 15.0747C7.29565 15.0872 7.26078 15.0936 7.22556 15.0936H2.92079C2.84979 15.0932 2.78182 15.0669 2.73161 15.0203C2.68141 14.9738 2.65302 14.9107 2.65261 14.8449V10.8525Z" fill="#D52940"/>
<path d="M16.8302 15.6974H21.0265C21.2836 15.6966 21.53 15.6016 21.7118 15.433C21.8936 15.2644 21.9961 15.0359 21.9969 14.7974V10.9014C21.9965 10.6622 21.8937 10.4329 21.7112 10.2639C21.5287 10.0949 21.2813 10 21.0234 10H16.8302C16.5723 10 16.3249 10.0949 16.1424 10.2639C15.9599 10.4329 15.8572 10.6622 15.8568 10.9014V14.7974C15.8576 15.0364 15.9605 15.2653 16.143 15.434C16.3255 15.6027 16.5726 15.6974 16.8302 15.6974ZM16.5078 10.8525C16.5076 10.8198 16.5144 10.7874 16.5278 10.7571C16.5412 10.7269 16.561 10.6994 16.5859 10.6762C16.6108 10.6531 16.6405 10.6348 16.6731 10.6224C16.7058 10.6099 16.7407 10.6036 16.776 10.6038H21.0808C21.1519 10.6038 21.2201 10.63 21.2704 10.6767C21.3207 10.7233 21.3489 10.7866 21.3489 10.8525V14.8449C21.3485 14.9107 21.3201 14.9738 21.2699 15.0203C21.2197 15.0669 21.1518 15.0932 21.0808 15.0936H16.776C16.7408 15.0936 16.7059 15.0872 16.6734 15.0747C16.6408 15.0622 16.6113 15.0438 16.5864 15.0207C16.5615 14.9976 16.5417 14.9702 16.5282 14.9401C16.5148 14.9099 16.5078 14.8775 16.5078 14.8449V10.8525Z" fill="#D52940"/>
</g>
</g>
<path d="M20.6535 3.59803L19.4187 3.40939L18.8648 2.2419C18.832 2.16952 18.7801 2.10837 18.7153 2.06555C18.6506 2.02273 18.5755 2 18.4988 2C18.4221 2 18.347 2.02273 18.2822 2.06555C18.2174 2.10837 18.1656 2.16952 18.1327 2.2419L17.5813 3.40939L16.3465 3.59803C16.2718 3.60943 16.2016 3.64243 16.1439 3.6933C16.0862 3.74417 16.0432 3.81089 16.0198 3.88591C15.9965 3.96094 15.9937 4.04129 16.0117 4.11789C16.0298 4.1945 16.068 4.2643 16.122 4.31943L17.0151 5.22946L16.8053 6.50402C16.7927 6.58206 16.8012 6.6622 16.8296 6.73555C16.858 6.80889 16.9054 6.87258 16.9663 6.91953C17.0276 6.96605 17.1001 6.9936 17.1756 6.99901C17.2512 7.00443 17.3266 6.98748 17.3934 6.95012L18.4963 6.34343L19.6018 6.95012C19.6596 6.98228 19.7241 6.99892 19.7897 6.99855C19.877 7.00058 19.9627 6.97284 20.0337 6.91953C20.0946 6.87258 20.142 6.80889 20.1704 6.73555C20.1988 6.6622 20.2073 6.58206 20.1947 6.50402L19.9849 5.22946L20.878 4.31943C20.932 4.2643 20.9702 4.1945 20.9883 4.11789C21.0063 4.04129 21.0035 3.96094 20.9802 3.88591C20.9568 3.81089 20.9138 3.74417 20.8561 3.6933C20.7984 3.64243 20.7282 3.60943 20.6535 3.59803ZM19.6628 4.87259C19.5908 4.94488 19.5369 5.03452 19.5059 5.13363C19.4748 5.23274 19.4675 5.3383 19.4846 5.44104L19.6481 6.44284L18.7892 5.97126C18.7007 5.9228 18.6023 5.89749 18.5024 5.89749C18.4026 5.89749 18.3042 5.9228 18.2157 5.97126L17.3543 6.44284L17.5203 5.44104C17.5367 5.3383 17.5291 5.23293 17.4981 5.13394C17.4671 5.03494 17.4135 4.94527 17.3421 4.87259L16.6467 4.16393L17.6081 4.01608C17.7071 4.00159 17.8011 3.96194 17.8819 3.9006C17.9628 3.83926 18.0279 3.75812 18.0717 3.6643L18.5012 2.75427L18.9331 3.6643C18.9766 3.75839 19.0417 3.83977 19.1226 3.90115C19.2035 3.96254 19.2977 4.00203 19.3968 4.01608L20.3582 4.16393L19.6628 4.87259Z" fill="#D52940"/>
<path d="M14.6512 3.59803L13.4171 3.40939L12.8659 2.2419C12.833 2.16952 12.7812 2.10837 12.7165 2.06555C12.6517 2.02273 12.5766 2 12.5 2C12.4234 2 12.3483 2.02273 12.2835 2.06555C12.2188 2.10837 12.167 2.16952 12.1341 2.2419L11.5805 3.40939L10.3463 3.59803C10.2717 3.60943 10.2015 3.64243 10.1438 3.6933C10.0861 3.74417 10.0432 3.81089 10.0198 3.88591C9.9965 3.96094 9.99369 4.04129 10.0117 4.11789C10.0298 4.1945 10.068 4.2643 10.122 4.31943L11.0146 5.22946L10.8049 6.50402C10.7924 6.58206 10.8008 6.6622 10.8292 6.73555C10.8576 6.80889 10.9049 6.87258 10.9659 6.91953C11.0271 6.96605 11.0996 6.9936 11.1751 6.99901C11.2506 7.00443 11.326 6.98748 11.3927 6.95012L12.4976 6.34343L13.6 6.95012C13.6587 6.98229 13.724 6.99892 13.7902 6.99855C13.8776 7.00058 13.9632 6.97284 14.0341 6.91953C14.0955 6.87288 14.1433 6.80933 14.1722 6.73597C14.201 6.6626 14.2098 6.5823 14.1976 6.50402L13.9854 5.22946L14.878 4.31943C14.932 4.2643 14.9702 4.1945 14.9883 4.11789C15.0063 4.04129 15.0035 3.96094 14.9802 3.88591C14.9568 3.81089 14.9139 3.74417 14.8562 3.6933C14.7985 3.64243 14.7283 3.60943 14.6537 3.59803H14.6512ZM13.6585 4.87259C13.5868 4.94449 13.5331 5.03369 13.502 5.13235C13.471 5.23102 13.4636 5.33614 13.4805 5.43849L13.6439 6.43775L12.7878 5.96616C12.6997 5.91813 12.6018 5.89279 12.5024 5.89224C12.403 5.89249 12.3051 5.91785 12.2171 5.96616L11.3585 6.43775L11.522 5.43849C11.5387 5.33635 11.5315 5.23149 11.5009 5.13291C11.4703 5.03433 11.4173 4.945 11.3463 4.87259L10.6537 4.16393L11.6122 4.01863C11.7104 4.0038 11.8036 3.96427 11.8839 3.90343C11.9642 3.8426 12.0291 3.76229 12.0732 3.6694L12.5024 2.76956L12.9293 3.67705C12.9739 3.76999 13.0393 3.85029 13.12 3.91109C13.2007 3.9719 13.2942 4.01142 13.3927 4.02628L14.3512 4.17158L13.6585 4.87259Z" fill="#D52940"/>
<path d="M8.64668 3.59478L7.41374 3.40652L6.86062 2.2414C6.82783 2.16918 6.77607 2.10815 6.71137 2.06542C6.64667 2.02269 6.57169 2 6.49513 2C6.41857 2 6.34358 2.02269 6.27888 2.06542C6.21418 2.10815 6.16242 2.16918 6.12963 2.2414L5.57895 3.40652L4.34601 3.59478C4.27139 3.60616 4.2013 3.63909 4.14367 3.68986C4.08603 3.74062 4.04313 3.8072 4.01982 3.88208C3.9965 3.95695 3.9937 4.03713 4.01173 4.11358C4.02975 4.19003 4.06789 4.25969 4.12183 4.31471L5.01365 5.22289L4.80409 6.49486C4.79129 6.57257 4.79957 6.65247 4.82802 6.72552C4.85647 6.79857 4.90394 6.86185 4.96505 6.90818C5.02617 6.95451 5.09849 6.98205 5.17383 6.98769C5.24917 6.99332 5.32451 6.97681 5.39133 6.94005L6.49269 6.33459L7.60867 6.95022C7.67531 6.9875 7.75066 7.00442 7.82609 6.99902C7.90151 6.99362 7.97395 6.96612 8.03509 6.91969C8.09597 6.87283 8.14323 6.80928 8.17161 6.73609C8.2 6.66289 8.20841 6.58291 8.19591 6.50503L7.98392 5.23307L8.87816 4.32488C8.93211 4.26987 8.97025 4.2002 8.98827 4.12376C9.0063 4.04731 9.0035 3.96712 8.98018 3.89225C8.95687 3.81738 8.91397 3.7508 8.85633 3.70003C8.79869 3.64927 8.72861 3.61633 8.65399 3.60495L8.64668 3.59478Z" fill="#D52940"/>
<defs>
<clipPath id="clip0_57_252">
<rect width="24" height="24" rx="5" fill="white"/>
</clipPath>
<clipPath id="clip1_57_252">
<rect width="24" height="24" fill="white"/>
</clipPath>
</defs>
</svg>
