<svg width="24" height="24" viewBox="0 0 24 24" fill="none" xmlns="http://www.w3.org/2000/svg">
<g clip-path="url(#clip0_57_282)">
<rect width="24" height="24" rx="5" fill="#F0F0F1"/>
<g clip-path="url(#clip1_57_282)">
<path d="M21.8102 8H1.99227C1.72946 8.00041 1.47749 8.11984 1.29152 8.33214C1.10555 8.54443 1.00073 8.8323 1 9.13274V14.8657C1.00036 15.1664 1.10502 15.4547 1.29103 15.6673C1.47704 15.8799 1.72922 15.9996 1.99227 16H21.8102C22.073 15.9996 22.325 15.8802 22.511 15.6679C22.697 15.4556 22.8018 15.1677 22.8025 14.8673V9.14061C22.8029 8.99124 22.7775 8.84324 22.7278 8.70508C22.6781 8.56692 22.6052 8.44129 22.513 8.33538C22.4209 8.22946 22.3114 8.14533 22.1908 8.08779C22.0702 8.03024 21.9409 8.00041 21.8102 8ZM22.0731 14.8657C22.0729 14.9049 22.066 14.9438 22.0527 14.98C22.0394 15.0161 22.0199 15.049 21.9955 15.0766C21.9711 15.1042 21.9422 15.126 21.9104 15.1409C21.8786 15.1557 21.8446 15.1632 21.8102 15.163H1.99227C1.95759 15.1639 1.92311 15.1568 1.89083 15.1423C1.85856 15.1277 1.82914 15.106 1.8043 15.0783C1.77945 15.0506 1.75966 15.0176 1.7461 14.9811C1.73253 14.9446 1.72546 14.9053 1.72528 14.8657V9.13904C1.72528 9.09965 1.73209 9.06065 1.74532 9.02428C1.75854 8.98791 1.77793 8.95489 1.80236 8.92711C1.82678 8.89933 1.85577 8.87735 1.88766 8.86242C1.91954 8.84749 1.95369 8.83991 1.98815 8.84012H21.8061C21.8406 8.83991 21.8747 8.84749 21.9066 8.86242C21.9385 8.87735 21.9675 8.89933 21.9919 8.92711C22.0163 8.95489 22.0357 8.98791 22.0489 9.02428C22.0622 9.06065 22.069 9.09965 22.069 9.13904L22.0731 14.8657Z" fill="#D52940"/>
<path d="M19.0177 11.1528C19.0177 11.9583 18.6475 12.3579 18.2154 12.3579C17.7833 12.3579 17.4378 11.9756 17.4323 11.2048C17.4268 10.4339 17.7984 10.0107 18.2415 10.0107C18.7095 10.0107 19.0177 10.4228 19.0177 11.1528ZM17.7929 11.1874C17.7833 11.6752 17.9415 12.0464 18.225 12.0464C18.5085 12.0464 18.6572 11.6814 18.6572 11.1749C18.6572 10.7108 18.5388 10.3222 18.225 10.3222C17.9415 10.3222 17.7929 10.7045 17.7929 11.1874ZM21.195 12.734C21.195 13.541 20.8248 13.9406 20.3967 13.9406C19.9687 13.9406 19.6205 13.5583 19.615 12.7937C19.6095 12.0291 19.9797 11.5933 20.4229 11.5933C20.8894 11.5933 21.195 12.0055 21.195 12.734ZM19.9701 12.7701C19.9701 13.2579 20.1298 13.6291 20.4078 13.6291C20.6858 13.6291 20.8399 13.2641 20.8399 12.7576C20.8399 12.2934 20.7215 11.9049 20.4078 11.9049C20.1242 11.9049 19.9701 12.2872 19.9701 12.7701ZM18.375 14.0287L18.2154 13.9233C18.1971 13.9109 18.1838 13.8907 18.1784 13.8672C18.173 13.8436 18.1759 13.8186 18.1865 13.7975L20.2399 9.73376C20.2503 9.71269 20.2676 9.69721 20.2879 9.69072C20.3083 9.68423 20.3301 9.68726 20.3486 9.69915L20.5082 9.80456C20.5265 9.81702 20.5398 9.83719 20.5452 9.86073C20.5506 9.88427 20.5477 9.9093 20.5371 9.93042L18.4838 14.0004C18.4734 14.0215 18.4561 14.037 18.4357 14.0435C18.4153 14.05 18.3935 14.0469 18.375 14.035V14.0287Z" fill="#D52940"/>
<path d="M16.1758 9.6535H2.87989C2.84934 9.65391 2.82014 9.66797 2.79854 9.69266C2.77693 9.71736 2.76464 9.75073 2.76428 9.78566V14.2081C2.76428 14.2427 2.77632 14.2759 2.79774 14.3004C2.81916 14.3249 2.84822 14.3387 2.87851 14.3387H16.1758C16.2064 14.3382 16.2356 14.3242 16.2572 14.2995C16.2788 14.2748 16.2911 14.2414 16.2914 14.2065V9.78566C16.2911 9.75073 16.2788 9.71736 16.2572 9.69266C16.2356 9.66797 16.2064 9.65391 16.1758 9.6535ZM15.7065 13.5866C15.7031 13.6147 15.6903 13.6403 15.6708 13.6578C15.6513 13.6754 15.6266 13.6837 15.6019 13.681H3.45241C3.42784 13.6837 3.40334 13.6754 3.38407 13.6577C3.3648 13.6401 3.35229 13.6146 3.34919 13.5866V10.4102C3.3523 10.3818 3.36495 10.3559 3.38448 10.338C3.404 10.3201 3.42886 10.3116 3.45378 10.3143H15.6019C15.6268 10.3116 15.6517 10.3201 15.6712 10.338C15.6907 10.3559 15.7034 10.3818 15.7065 10.4102V13.5866Z" fill="#D52940"/>
</g>
</g>
<defs>
<clipPath id="clip0_57_282">
<rect width="24" height="24" rx="5" fill="white"/>
</clipPath>
<clipPath id="clip1_57_282">
<rect width="24" height="24" fill="white"/>
</clipPath>
</defs>
</svg>
