<svg width="24" height="24" viewBox="0 0 24 24" fill="none" xmlns="http://www.w3.org/2000/svg">
<g clip-path="url(#clip0_57_302)">
<rect width="24" height="24" rx="5" fill="#D52940"/>
<g clip-path="url(#clip1_57_302)">
<path d="M11.1004 8H9.15609C7.52391 8.00141 5.95908 8.53812 4.80496 9.49237C3.65084 10.4466 3.0017 11.7405 3 13.09V19.5176C3.00127 20.4402 3.44476 21.3247 4.23331 21.9775C5.02186 22.6302 6.09117 22.9979 7.20698 23H13.0382C14.1549 22.9989 15.2254 22.6317 16.015 21.9789C16.8046 21.326 17.2487 20.4409 17.25 19.5176V13.09C17.2483 11.7414 16.6001 10.4483 15.4473 9.49425C14.2946 8.54015 12.7314 8.00281 11.1004 8ZM10.1355 14.429C9.87955 14.429 9.63413 14.3449 9.45317 14.1953C9.27222 14.0457 9.17056 13.8427 9.17056 13.6311V13.0993C9.17056 12.8861 9.27298 12.6817 9.45529 12.5309C9.6376 12.3802 9.88487 12.2955 10.1427 12.2955C10.4005 12.2955 10.6478 12.3802 10.8301 12.5309C11.0124 12.6817 11.1148 12.8861 11.1148 13.0993V13.6311C11.1136 13.7372 11.087 13.842 11.0367 13.9395C10.9863 14.0371 10.9132 14.1254 10.8215 14.1995C10.7297 14.2737 10.6212 14.3321 10.5021 14.3714C10.383 14.4108 10.2557 14.4304 10.1274 14.429H10.1355ZM11.1004 12.0249C10.8223 11.8465 10.4802 11.7496 10.1282 11.7496C9.7762 11.7496 9.43419 11.8465 9.15609 12.0249V10.9465C9.15609 10.7334 9.25851 10.5289 9.44082 10.3782C9.62313 10.2274 9.8704 10.1428 10.1282 10.1428C10.3861 10.1428 10.6333 10.2274 10.8156 10.3782C10.9979 10.5289 11.1004 10.7334 11.1004 10.9465V12.0249ZM16.6067 19.5176C16.6059 20.2989 16.2302 21.0479 15.562 21.6003C14.8939 22.1528 13.9879 22.4634 13.043 22.4641H7.20698C6.26209 22.4634 5.35614 22.1528 4.688 21.6003C4.01986 21.0479 3.64412 20.2989 3.64327 19.5176V13.09C3.64327 11.8811 4.22408 10.7217 5.25794 9.86691C6.29179 9.0121 7.694 8.53187 9.15609 8.53187H9.79935V9.63017C9.43383 9.6925 9.10541 9.85701 8.86935 10.096C8.63328 10.335 8.50397 10.634 8.50317 10.9426V13.6245C8.50337 13.9332 8.63246 14.2324 8.86863 14.4715C9.10479 14.7106 9.43355 14.875 9.79935 14.9369V16.9965L9.0612 16.3769C9.03111 16.352 8.99538 16.3323 8.95606 16.3188C8.91674 16.3054 8.8746 16.2984 8.83204 16.2984C8.78948 16.2984 8.74734 16.3054 8.70801 16.3188C8.66869 16.3323 8.63297 16.352 8.60287 16.3769C8.57278 16.4018 8.54891 16.4313 8.53262 16.4638C8.51633 16.4964 8.50795 16.5312 8.50795 16.5664C8.50795 16.6016 8.51633 16.6364 8.53262 16.6689C8.54891 16.7014 8.57278 16.731 8.60287 16.7559L9.89906 17.8276H9.90871C9.93598 17.8498 9.96821 17.8674 10.0036 17.8794C10.042 17.8937 10.0837 17.901 10.1258 17.9007C10.1677 17.9007 10.2093 17.8939 10.248 17.8808C10.2881 17.8671 10.3247 17.8473 10.3558 17.8223L11.6423 16.7506C11.6799 16.7281 11.7112 16.6991 11.734 16.6657C11.7568 16.6323 11.7705 16.5952 11.7744 16.5569C11.7782 16.5187 11.7719 16.4802 11.7561 16.4442C11.7402 16.4081 11.7151 16.3753 11.6825 16.3481C11.6498 16.3208 11.6104 16.2997 11.567 16.2862C11.5236 16.2727 11.4771 16.2671 11.4308 16.2698C11.3845 16.2726 11.3395 16.2836 11.2989 16.302C11.2582 16.3205 11.2228 16.3461 11.1952 16.3769L10.4523 16.9912V14.9369C10.8163 14.8734 11.1428 14.7083 11.3771 14.4694C11.6113 14.2304 11.7391 13.9321 11.7388 13.6245V10.9465C11.7388 10.639 11.6109 10.3408 11.3767 10.1019C11.1425 9.863 10.8162 9.69787 10.4523 9.63416V8.53187H11.0955C12.5557 8.53328 13.9555 9.01358 14.9878 9.86737C16.0202 10.7212 16.6006 11.8787 16.6019 13.086L16.6067 19.5176ZM15.3106 19.5176C15.3106 19.4471 15.3444 19.3794 15.4048 19.3296C15.4651 19.2797 15.5469 19.2517 15.6322 19.2517C15.7175 19.2517 15.7993 19.2797 15.8596 19.3296C15.9199 19.3794 15.9538 19.4471 15.9538 19.5176C15.953 20.1567 15.6455 20.7695 15.0989 21.2214C14.5523 21.6734 13.8112 21.9276 13.0382 21.9283C12.9529 21.9283 12.8711 21.9003 12.8108 21.8504C12.7505 21.8005 12.7166 21.7329 12.7166 21.6624C12.7166 21.5918 12.7505 21.5242 12.8108 21.4743C12.8711 21.4244 12.9529 21.3964 13.0382 21.3964C13.3367 21.3966 13.6323 21.3481 13.9081 21.2538C14.1838 21.1594 14.4344 21.021 14.6455 20.8465C14.8565 20.672 15.0239 20.4648 15.138 20.2368C15.2521 20.0088 15.3108 19.7644 15.3106 19.5176Z" fill="white"/>
<path d="M21.9884 9.1696C21.9884 9.24544 21.9502 9.31818 21.8821 9.37181C21.814 9.42543 21.7217 9.45556 21.6255 9.45556C21.5292 9.45556 21.4369 9.42543 21.3688 9.37181C21.3007 9.31818 21.2625 9.24544 21.2625 9.1696V9.05339H20.1852V11.1948H20.3509C20.4472 11.1948 20.5395 11.2249 20.6076 11.2786C20.6757 11.3322 20.7139 11.4049 20.7139 11.4808C20.7139 11.5566 20.6757 11.6293 20.6076 11.683C20.5395 11.7366 20.4472 11.7667 20.3509 11.7667H19.3051C19.2089 11.7667 19.1166 11.7366 19.0485 11.683C18.9804 11.6293 18.9422 11.5566 18.9422 11.4808C18.9422 11.4049 18.9804 11.3322 19.0485 11.2786C19.1166 11.2249 19.2089 11.1948 19.3051 11.1948H19.4709V9.05339H18.3919V9.17483C18.3919 9.25067 18.3537 9.3234 18.2856 9.37703C18.2176 9.43066 18.1252 9.46078 18.029 9.46078C17.9327 9.46078 17.8404 9.43066 17.7723 9.37703C17.7043 9.3234 17.666 9.25067 17.666 9.17483V8.76221C17.666 8.68637 17.7043 8.61364 17.7723 8.56001C17.8404 8.50638 17.9327 8.47626 18.029 8.47626H21.6371C21.7333 8.47626 21.8256 8.50638 21.8937 8.56001C21.9618 8.61364 22 8.68637 22 8.76221L21.9884 9.1696Z" fill="white"/>
<path d="M18.6535 2.59803L17.4163 2.40939L16.8648 1.2419C16.832 1.16952 16.7801 1.10837 16.7153 1.06555C16.6505 1.02273 16.5755 1 16.4988 1C16.4221 1 16.347 1.02273 16.2822 1.06555C16.2174 1.10837 16.1656 1.16952 16.1327 1.2419L15.5813 2.40939L14.3465 2.59803C14.2718 2.60943 14.2016 2.64243 14.1439 2.6933C14.0862 2.74417 14.0432 2.81089 14.0198 2.88591C13.9965 2.96094 13.9937 3.04129 14.0117 3.11789C14.0298 3.1945 14.068 3.2643 14.122 3.31943L15.0151 4.22946L14.8028 5.50402C14.7906 5.5823 14.7994 5.6626 14.8282 5.73597C14.8571 5.80933 14.9049 5.87288 14.9663 5.91953C15.0276 5.96605 15.1001 5.9936 15.1756 5.99901C15.2512 6.00443 15.3266 5.98748 15.3934 5.95012L16.4963 5.34343L17.6018 5.95012C17.6596 5.98228 17.7241 5.99892 17.7897 5.99855C17.877 6.00058 17.9627 5.97284 18.0337 5.91953C18.0946 5.87258 18.142 5.80889 18.1704 5.73555C18.1988 5.6622 18.2073 5.58206 18.1947 5.50402L17.9824 4.22946L18.878 3.31943C18.932 3.2643 18.9702 3.1945 18.9883 3.11789C19.0063 3.04129 19.0035 2.96094 18.9802 2.88591C18.9568 2.81089 18.9138 2.74417 18.8561 2.6933C18.7984 2.64243 18.7282 2.60943 18.6535 2.59803ZM17.6628 3.87259C17.5908 3.94488 17.5369 4.03452 17.5059 4.13363C17.4748 4.23274 17.4675 4.3383 17.4846 4.44104L17.6481 5.44284L16.7892 4.97126C16.7005 4.92205 16.6016 4.89665 16.5012 4.89733C16.4016 4.89642 16.3034 4.92186 16.2157 4.97126L15.3543 5.44284L15.5178 4.44104C15.5352 4.3385 15.5283 4.23308 15.4977 4.13398C15.467 4.03488 15.4136 3.94513 15.3421 3.87259L14.6467 3.16393L15.6081 3.01608C15.7071 3.00159 15.8011 2.96194 15.8819 2.9006C15.9628 2.83926 16.0279 2.75812 16.0717 2.6643L16.5012 1.75427L16.9331 2.6643C16.9762 2.75867 17.0412 2.84028 17.1222 2.90172C17.2032 2.96315 17.2976 3.00247 17.3968 3.01608L18.3582 3.16393L17.6628 3.87259Z" fill="white"/>
<path d="M12.6354 2.5952L11.4056 2.4069L10.8563 1.24147C10.8236 1.16922 10.772 1.10818 10.7075 1.06544C10.6429 1.02269 10.5681 1 10.4918 1C10.4154 1 10.3406 1.02269 10.2761 1.06544C10.2115 1.10818 10.1599 1.16922 10.1272 1.24147L9.57549 2.4069L8.34568 2.5952C8.27128 2.60683 8.20142 2.63987 8.14391 2.69064C8.0864 2.74142 8.0435 2.80793 8.02 2.88275C7.99653 2.95761 7.99365 3.03789 8.01171 3.11438C8.02976 3.19088 8.06801 3.26052 8.12208 3.31533L9.01163 4.22376L8.80261 5.49606C8.79013 5.57397 8.79852 5.65396 8.82684 5.72718C8.85515 5.80039 8.90229 5.86396 8.96301 5.91083C9.024 5.95728 9.09625 5.98478 9.17148 5.99018C9.24672 5.99558 9.32188 5.97866 9.38834 5.94137L10.4893 5.33575L11.6049 5.95155C11.6634 5.98366 11.7285 6.00026 11.7945 5.9999C11.8815 6.00192 11.9669 5.97423 12.0375 5.92101C12.0983 5.87414 12.1454 5.81057 12.1737 5.73736C12.202 5.66414 12.2104 5.58414 12.1979 5.50624L11.9889 4.23393L12.8785 3.32551C12.9323 3.27048 12.9703 3.20079 12.9883 3.12433C13.0063 3.04786 13.0035 2.96765 12.9802 2.89276C12.957 2.81786 12.9142 2.75127 12.8567 2.70049C12.7992 2.64971 12.7293 2.61677 12.6549 2.60538L12.6354 2.5952Z" fill="white"/>
<path d="M7.64646 2.59478L6.41163 2.40652L5.86011 1.2414C5.82727 1.16918 5.77543 1.10815 5.71063 1.06542C5.64584 1.02269 5.57073 1 5.49406 1C5.41738 1 5.34228 1.02269 5.27748 1.06542C5.21268 1.10815 5.16085 1.16918 5.128 1.2414L4.58136 2.40652L3.34653 2.59478C3.2718 2.60616 3.20161 2.63909 3.14389 2.68986C3.08616 2.74062 3.0432 2.8072 3.01985 2.88208C2.9965 2.95695 2.99369 3.03713 3.01175 3.11358C3.0298 3.19003 3.068 3.25969 3.12202 3.31471L4.01519 4.22289L3.80288 5.49486C3.79092 5.57271 3.7996 5.6525 3.82798 5.72558C3.85637 5.79867 3.90339 5.86227 3.96395 5.90952C4.03516 5.96223 4.12066 5.98986 4.20798 5.98838C4.27349 5.98875 4.33806 5.97214 4.39589 5.94005L5.50138 5.33459L6.60686 5.95022C6.6736 5.9875 6.74907 6.00442 6.82461 5.99902C6.90015 5.99362 6.97269 5.96612 7.03393 5.91969C7.09448 5.87245 7.1415 5.80884 7.16989 5.73576C7.19828 5.66267 7.20696 5.58289 7.19499 5.50503L6.98268 4.23307L7.87829 3.32488C7.93236 3.2697 7.97053 3.19983 7.98846 3.1232C8.00639 3.04656 8.00338 2.96623 7.97975 2.89129C7.95613 2.81635 7.91284 2.7498 7.8548 2.6992C7.79675 2.64859 7.72627 2.61594 7.65134 2.60495L7.64646 2.59478Z" fill="white"/>
</g>
</g>
<defs>
<clipPath id="clip0_57_302">
<rect width="24" height="24" rx="5" fill="white"/>
</clipPath>
<clipPath id="clip1_57_302">
<rect width="24" height="24" fill="white"/>
</clipPath>
</defs>
</svg>
