<svg width="24" height="24" viewBox="0 0 24 24" fill="none" xmlns="http://www.w3.org/2000/svg">
<g clip-path="url(#clip0_57_322)">
<rect width="24" height="24" rx="5" fill="#D52940"/>
<g clip-path="url(#clip1_57_322)">
<path d="M18.6535 2.59803L17.4163 2.40939L16.8648 1.2419C16.832 1.16952 16.7801 1.10837 16.7153 1.06555C16.6505 1.02273 16.5755 1 16.4988 1C16.4221 1 16.347 1.02273 16.2822 1.06555C16.2174 1.10837 16.1656 1.16952 16.1327 1.2419L15.5813 2.40939L14.3465 2.59803C14.2718 2.60943 14.2016 2.64243 14.1439 2.6933C14.0862 2.74417 14.0432 2.81089 14.0198 2.88591C13.9965 2.96094 13.9937 3.04129 14.0117 3.11789C14.0298 3.1945 14.068 3.2643 14.122 3.31943L15.0151 4.22946L14.8028 5.50402C14.7906 5.5823 14.7994 5.6626 14.8282 5.73597C14.8571 5.80933 14.9049 5.87288 14.9663 5.91953C15.0276 5.96605 15.1001 5.9936 15.1756 5.99901C15.2512 6.00443 15.3266 5.98748 15.3934 5.95012L16.4963 5.34343L17.6018 5.95012C17.6596 5.98228 17.7241 5.99892 17.7897 5.99855C17.877 6.00058 17.9627 5.97284 18.0337 5.91953C18.0946 5.87258 18.142 5.80889 18.1704 5.73555C18.1988 5.6622 18.2073 5.58206 18.1947 5.50402L17.9824 4.22946L18.878 3.31943C18.932 3.2643 18.9702 3.1945 18.9883 3.11789C19.0063 3.04129 19.0035 2.96094 18.9802 2.88591C18.9568 2.81089 18.9138 2.74417 18.8561 2.6933C18.7984 2.64243 18.7282 2.60943 18.6535 2.59803ZM17.6628 3.87259C17.5908 3.94488 17.5369 4.03452 17.5059 4.13363C17.4748 4.23274 17.4675 4.3383 17.4846 4.44104L17.6481 5.44284L16.7892 4.97126C16.7005 4.92205 16.6016 4.89665 16.5012 4.89733C16.4016 4.89642 16.3034 4.92186 16.2157 4.97126L15.3543 5.44284L15.5178 4.44104C15.5352 4.3385 15.5283 4.23308 15.4977 4.13398C15.467 4.03488 15.4136 3.94513 15.3421 3.87259L14.6467 3.16393L15.6081 3.01608C15.7071 3.00159 15.8011 2.96194 15.8819 2.9006C15.9628 2.83926 16.0279 2.75812 16.0717 2.6643L16.5012 1.75427L16.9331 2.6643C16.9762 2.75867 17.0412 2.84028 17.1222 2.90172C17.2032 2.96315 17.2976 3.00247 17.3968 3.01608L18.3582 3.16393L17.6628 3.87259Z" fill="white"/>
<path d="M12.6354 2.5952L11.4056 2.4069L10.8563 1.24147C10.8236 1.16922 10.772 1.10818 10.7075 1.06544C10.6429 1.02269 10.5681 1 10.4918 1C10.4154 1 10.3406 1.02269 10.2761 1.06544C10.2115 1.10818 10.1599 1.16922 10.1272 1.24147L9.57549 2.4069L8.34568 2.5952C8.27128 2.60683 8.20142 2.63987 8.14391 2.69064C8.0864 2.74142 8.0435 2.80793 8.02 2.88275C7.99653 2.95761 7.99365 3.03789 8.01171 3.11438C8.02976 3.19088 8.06801 3.26052 8.12208 3.31533L9.01163 4.22376L8.80261 5.49606C8.79013 5.57397 8.79852 5.65396 8.82684 5.72718C8.85515 5.80039 8.90229 5.86396 8.96301 5.91083C9.024 5.95728 9.09625 5.98478 9.17148 5.99018C9.24672 5.99558 9.32188 5.97866 9.38834 5.94137L10.4893 5.33575L11.6049 5.95155C11.6634 5.98366 11.7285 6.00026 11.7945 5.9999C11.8815 6.00192 11.9669 5.97423 12.0375 5.92101C12.0983 5.87414 12.1454 5.81057 12.1737 5.73736C12.202 5.66414 12.2104 5.58414 12.1979 5.50624L11.9889 4.23393L12.8785 3.32551C12.9323 3.27048 12.9703 3.20079 12.9883 3.12433C13.0063 3.04786 13.0035 2.96765 12.9802 2.89276C12.957 2.81786 12.9142 2.75127 12.8567 2.70049C12.7992 2.64971 12.7293 2.61677 12.6549 2.60538L12.6354 2.5952Z" fill="white"/>
<path d="M7.64646 2.59478L6.41163 2.40652L5.86011 1.2414C5.82727 1.16918 5.77543 1.10815 5.71063 1.06542C5.64584 1.02269 5.57073 1 5.49406 1C5.41738 1 5.34228 1.02269 5.27748 1.06542C5.21268 1.10815 5.16085 1.16918 5.128 1.2414L4.58136 2.40652L3.34653 2.59478C3.2718 2.60616 3.20161 2.63909 3.14389 2.68986C3.08616 2.74062 3.0432 2.8072 3.01985 2.88208C2.9965 2.95695 2.99369 3.03713 3.01175 3.11358C3.0298 3.19003 3.068 3.25969 3.12202 3.31471L4.01519 4.22289L3.80288 5.49486C3.79092 5.57271 3.7996 5.6525 3.82798 5.72558C3.85637 5.79867 3.90339 5.86227 3.96395 5.90952C4.03516 5.96223 4.12066 5.98986 4.20798 5.98838C4.27349 5.98875 4.33806 5.97214 4.39589 5.94005L5.50138 5.33459L6.60686 5.95022C6.6736 5.9875 6.74907 6.00442 6.82461 5.99902C6.90015 5.99362 6.97269 5.96612 7.03393 5.91969C7.09448 5.87245 7.1415 5.80884 7.16989 5.73576C7.19828 5.66267 7.20696 5.58289 7.19499 5.50503L6.98268 4.23307L7.87829 3.32488C7.93236 3.2697 7.97053 3.19983 7.98846 3.1232C8.00639 3.04656 8.00338 2.96623 7.97975 2.89129C7.95613 2.81635 7.91284 2.7498 7.8548 2.6992C7.79675 2.64859 7.72627 2.61594 7.65134 2.60495L7.64646 2.59478Z" fill="white"/>
<path d="M19.0677 9H3.93383C3.81027 8.99999 3.68794 9.02156 3.57393 9.06345C3.45992 9.10535 3.35648 9.16673 3.26963 9.24405C3.18278 9.32137 3.11423 9.41309 3.06795 9.51389C3.02168 9.61469 2.99861 9.72257 3.00007 9.83127V19.4588C3.00048 19.6766 3.09899 19.8853 3.27402 20.0393C3.44904 20.1933 3.68631 20.28 3.93383 20.2804H8.97269L8.7239 21.3887H7.94918C7.87909 21.3887 7.81082 21.4083 7.75422 21.4447C7.69762 21.481 7.6556 21.5323 7.63425 21.591L7.25476 22.619C7.23895 22.6627 7.23504 22.7091 7.24336 22.7543C7.25168 22.7996 7.27199 22.8425 7.30265 22.8796C7.33331 22.9167 7.37345 22.9469 7.41984 22.9678C7.46623 22.9888 7.51756 22.9998 7.56969 23H15.4319C15.4842 23 15.5357 22.989 15.5822 22.9681C15.6287 22.9471 15.669 22.9167 15.6996 22.8795C15.7306 22.8425 15.751 22.7996 15.7593 22.7543C15.7675 22.709 15.7632 22.6626 15.7468 22.619L15.3673 21.591C15.346 21.5323 15.304 21.481 15.2474 21.4447C15.1907 21.4083 15.1225 21.3887 15.0524 21.3887H14.2745L14.0273 20.2804H19.0662C19.3137 20.28 19.551 20.1933 19.726 20.0393C19.901 19.8853 19.9995 19.6766 19.9999 19.4588V9.83127C20.0014 9.72268 19.9784 9.61492 19.9322 9.51421C19.886 9.4135 19.8176 9.32185 19.7309 9.24454C19.6442 9.16724 19.541 9.10583 19.4272 9.06385C19.3133 9.02188 19.1912 9.00018 19.0677 9ZM3.93383 9.58882H19.0677C19.1037 9.58881 19.1393 9.59511 19.1725 9.60735C19.2057 9.61958 19.2357 9.63751 19.2609 9.66008C19.2862 9.68265 19.306 9.70941 19.3193 9.7388C19.3327 9.76819 19.3392 9.79963 19.3386 9.83127V17.5469H3.66142V9.83127C3.66079 9.79951 3.66738 9.76796 3.6808 9.73848C3.69423 9.70899 3.71422 9.68217 3.7396 9.65958C3.76498 9.63699 3.79524 9.61909 3.8286 9.60694C3.86195 9.59479 3.89773 9.58863 3.93383 9.58882ZM14.9752 22.4098H8.02633L8.1838 21.9651H14.8052L14.9752 22.4098ZM13.599 21.3818H9.40257L9.65137 20.2734H13.3518L13.599 21.3818ZM19.0677 19.6915H3.93383C3.86185 19.6915 3.7928 19.6665 3.74176 19.6218C3.69072 19.5772 3.66183 19.5166 3.66142 19.4532V18.1246H19.337V19.4532C19.3366 19.5161 19.3082 19.5763 19.2578 19.6209C19.2074 19.6654 19.1392 19.6908 19.0677 19.6915Z" fill="white"/>
<path d="M9.99458 10.923C9.916 10.9658 9.85116 11.0256 9.80623 11.0966C9.76131 11.1677 9.73779 11.2476 9.73792 11.329V14.3603C9.73779 14.4416 9.76131 14.5216 9.80623 14.5927C9.85116 14.6637 9.916 14.7235 9.99458 14.7663C10.0736 14.8092 10.1638 14.8338 10.2567 14.8377C10.3495 14.8416 10.4419 14.8246 10.5252 14.7884L11.9125 14.1788C11.9434 14.1665 11.9712 14.1489 11.9941 14.1269C12.0171 14.105 12.0348 14.0791 12.0461 14.051C12.0574 14.0229 12.0622 13.9931 12.0602 13.9633C12.0581 13.9335 12.0492 13.9044 12.034 13.8777C12.0189 13.851 11.9977 13.8273 11.9719 13.808C11.9461 13.7887 11.9161 13.7741 11.8837 13.7652C11.8513 13.7563 11.8172 13.7533 11.7835 13.7563C11.7498 13.7593 11.717 13.7682 11.6873 13.7826L10.3016 14.3922C10.2954 14.3952 10.2883 14.3968 10.2812 14.3968C10.274 14.3968 10.267 14.3952 10.2607 14.3922C10.2549 14.3892 10.2501 14.385 10.2468 14.3799C10.2435 14.3748 10.2417 14.369 10.2418 14.3631V11.329C10.2417 11.3231 10.2435 11.3173 10.2468 11.3122C10.2501 11.307 10.2549 11.3028 10.2607 11.2999C10.2666 11.2965 10.2734 11.2947 10.2804 11.2947C10.2874 11.2947 10.2942 11.2965 10.3001 11.2999L13.7391 12.8114C13.7462 12.8142 13.7522 12.819 13.7561 12.8249C13.7601 12.8309 13.7618 12.8378 13.7611 12.8446C13.7619 12.8512 13.7603 12.8577 13.7566 12.8634C13.753 12.8691 13.7474 12.8737 13.7407 12.8765L12.5849 13.3863C12.554 13.3986 12.5262 13.4163 12.5033 13.4383C12.4803 13.4602 12.4626 13.486 12.4513 13.5141C12.4399 13.5423 12.4351 13.5721 12.4372 13.6019C12.4393 13.6317 12.4482 13.6608 12.4634 13.6875C12.4785 13.7141 12.4996 13.7379 12.5255 13.7572C12.5513 13.7765 12.5813 13.7911 12.6137 13.7999C12.6461 13.8088 12.6801 13.8119 12.7139 13.8089C12.7476 13.8059 12.7803 13.797 12.8101 13.7826L13.9674 13.2727C14.0571 13.2324 14.1323 13.1711 14.1848 13.0956C14.2374 13.0201 14.2652 12.9332 14.2652 12.8446C14.2652 12.7561 14.2374 12.6692 14.1848 12.5937C14.1323 12.5181 14.0571 12.4568 13.9674 12.4165L10.5221 10.8925C10.4385 10.8578 10.3461 10.8424 10.2539 10.8477C10.1616 10.853 10.0723 10.879 9.99458 10.923Z" fill="white"/>
<path d="M13.5155 15.06C13.4487 15.06 13.3846 15.0833 13.3374 15.1249C13.2901 15.1665 13.2636 15.2228 13.2636 15.2816V15.725H7.72399C7.65717 15.725 7.59309 15.7483 7.54584 15.7899C7.49859 15.8315 7.47205 15.8879 7.47205 15.9466C7.47205 16.0054 7.49859 16.0618 7.54584 16.1034C7.59309 16.145 7.65717 16.1683 7.72399 16.1683H13.2667V16.6103C13.2667 16.6691 13.2933 16.7255 13.3405 16.767C13.3878 16.8086 13.4519 16.8319 13.5187 16.8319C13.5855 16.8319 13.6496 16.8086 13.6968 16.767C13.7441 16.7255 13.7706 16.6691 13.7706 16.6103V16.1683H15.2807C15.3475 16.1683 15.4116 16.145 15.4589 16.1034C15.5061 16.0618 15.5327 16.0054 15.5327 15.9466C15.5327 15.8879 15.5061 15.8315 15.4589 15.7899C15.4116 15.7483 15.3475 15.725 15.2807 15.725H13.7706V15.2816C13.7706 15.2523 13.764 15.2232 13.7512 15.1962C13.7383 15.1691 13.7195 15.1445 13.6957 15.1239C13.672 15.1033 13.6438 15.087 13.6129 15.076C13.582 15.0651 13.5489 15.0596 13.5155 15.06Z" fill="white"/>
</g>
</g>
<defs>
<clipPath id="clip0_57_322">
<rect width="24" height="24" rx="5" fill="white"/>
</clipPath>
<clipPath id="clip1_57_322">
<rect width="24" height="24" fill="white"/>
</clipPath>
</defs>
</svg>
