<svg width="24" height="24" viewBox="0 0 24 24" fill="none" xmlns="http://www.w3.org/2000/svg">
<rect width="24" height="24" rx="5" fill="#F0F0F1"/>
<path d="M20.9906 3.00001H2.90867C2.7609 2.99976 2.61456 3.02886 2.47813 3.08563C2.3417 3.1424 2.21791 3.22571 2.11395 3.33072C2.00999 3.43573 1.92793 3.56035 1.87253 3.69734C1.81713 3.83434 1.7895 3.98097 1.79125 4.12873V17.1992C1.79125 17.4947 1.90852 17.7782 2.11732 17.9874C2.32611 18.1965 2.60937 18.3143 2.90491 18.3147H8.9247L8.62748 19.8197H7.7057C7.62211 19.8203 7.54082 19.8471 7.47331 19.8964C7.4058 19.9457 7.35548 20.0149 7.32946 20.0944L6.87045 21.4827C6.84973 21.5417 6.84403 21.6049 6.85389 21.6666C6.86374 21.7284 6.88883 21.7867 6.92688 21.8363C6.96354 21.8873 7.01187 21.9288 7.06784 21.9573C7.1238 21.9857 7.18578 22.0004 7.24857 22H16.6526C16.7151 22.0001 16.7767 21.9853 16.8323 21.9568C16.8879 21.9284 16.9359 21.8871 16.9724 21.8363C17.0105 21.7867 17.0356 21.7284 17.0454 21.6666C17.0553 21.6049 17.0496 21.5417 17.0289 21.4827L16.5792 20.0868C16.5532 20.0074 16.5029 19.9381 16.4354 19.8889C16.3679 19.8396 16.2866 19.8127 16.203 19.8122H15.2718L14.9784 18.3072H20.9982C21.2939 18.3067 21.5773 18.189 21.7864 17.9799C21.9955 17.7708 22.1132 17.4874 22.1137 17.1917V4.12873C22.1152 3.98056 22.0872 3.83358 22.0314 3.69633C21.9755 3.55908 21.893 3.43431 21.7884 3.32927C21.6839 3.22423 21.5596 3.14103 21.4226 3.08451C21.2856 3.02798 21.1388 2.99926 20.9906 3.00001ZM15.9114 20.5966L16.0995 21.2005H7.79787L7.98599 20.5966H15.9001H15.9114ZM9.44767 19.8046L9.74678 18.2997H14.1676L14.461 19.8046H9.44767ZM6.62589 17.5096H2.90867C2.82318 17.5091 2.74136 17.4748 2.68109 17.4142C2.62082 17.3535 2.58699 17.2715 2.58699 17.186V4.12873C2.58699 4.04324 2.62082 3.96122 2.68109 3.90059C2.74136 3.83997 2.82318 3.80566 2.90867 3.80516H20.9906C21.0764 3.80516 21.1587 3.83925 21.2194 3.89993C21.2801 3.96061 21.3142 4.04291 21.3142 4.12873V17.1992C21.3142 17.285 21.2801 17.3673 21.2194 17.428C21.1587 17.4887 21.0764 17.5228 20.9906 17.5228H6.61085L6.62589 17.5096Z" fill="#D52940"/>
<path d="M7.41969 13.1245H4.89514C4.70917 13.1245 4.55841 13.2753 4.55841 13.4612V13.5497C4.55841 13.7356 4.70917 13.8864 4.89514 13.8864H7.41969C7.60567 13.8864 7.75643 13.7356 7.75643 13.5497V13.4612C7.75643 13.2753 7.60567 13.1245 7.41969 13.1245Z" fill="#D52940"/>
<path d="M9.34236 10.1619H4.75979C4.64862 10.1619 4.5585 10.252 4.5585 10.3632V10.365C4.5585 10.4762 4.64862 10.5663 4.75979 10.5663H9.34236C9.45353 10.5663 9.54364 10.4762 9.54364 10.365V10.3632C9.54364 10.252 9.45353 10.1619 9.34236 10.1619Z" fill="#D52940"/>
<path d="M14.3275 9.08374H4.75979C4.64862 9.08374 4.5585 9.17386 4.5585 9.28503V9.28691C4.5585 9.39808 4.64862 9.4882 4.75979 9.4882H14.3275C14.4387 9.4882 14.5288 9.39808 14.5288 9.28691V9.28503C14.5288 9.17386 14.4387 9.08374 14.3275 9.08374Z" fill="#D52940"/>
<path d="M14.3275 8.00586H4.75979C4.64862 8.00586 4.5585 8.09598 4.5585 8.20715V8.20903C4.5585 8.3202 4.64862 8.41031 4.75979 8.41031H14.3275C14.4387 8.41031 14.5288 8.3202 14.5288 8.20903V8.20715C14.5288 8.09598 14.4387 8.00586 14.3275 8.00586Z" fill="#D52940"/>
</svg>
